<?xml version="1.0" encoding="utf-8"?>
<!-- Generator: Adobe Illustrator 27.5.0, SVG Export Plug-In . SVG Version: 6.00 Build 0)  -->
<svg version="1.1" id="Layer_1" xmlns="http://www.w3.org/2000/svg" xmlns:xlink="http://www.w3.org/1999/xlink" x="0px" y="0px"
	 viewBox="0 0 4000 4000" style="enable-background:new 0 0 4000 4000;" xml:space="preserve">
<path  style="fill:#0000;" d="M0,0h4000v4000H0V0z"/>
<path style="fill:#022061;" d="M3304.055,949.977c48.699-5.379,100.039,11.328,138.371,41.25c54.371,42.449,79.973,104.754,87.965,171.652
	c4.469-0.737,8.952-1.368,13.449-1.895c21.297-2.375,43.414,3.777,59.875,17.621c26.59,22.363,30.863,53,33.711,85.434
	c10.297-5.953,19.539-9.914,31.563-10.945c20.402-1.758,40.246,4.719,55.375,18.598c23.715,21.758,28.215,51.133,29.953,81.488
	c4.887-6.008,9.813-11.844,16.172-16.355c1.774-1.276,3.605-2.461,5.496-3.555c1.891-1.091,3.832-2.086,5.824-2.984
	c1.992-0.896,4.024-1.69,6.094-2.383c2.073-0.693,4.175-1.28,6.305-1.762c2.13-0.482,4.28-0.854,6.449-1.117
	c2.167-0.266,4.342-0.42,6.527-0.465c2.185-0.047,4.366,0.017,6.543,0.191c2.177,0.175,4.34,0.457,6.488,0.848
	c22.817,3.969,42.227,18.934,54.844,37.969c14.109,21.277,15.387,39.77,10.855,63.922c-49.176,0.465-98.441-1.523-147.641-1.699
	l-360.344,0.055l-609.102-0.758c-0.453-21.152-0.363-39.84,10.418-58.91c0.635-1.133,1.298-2.247,1.988-3.344
	c0.693-1.099,1.413-2.18,2.16-3.242c0.745-1.063,1.516-2.106,2.313-3.129c0.8-1.021,1.624-2.022,2.473-3.004
	c0.849-0.982,1.723-1.941,2.621-2.879c0.896-0.938,1.816-1.853,2.762-2.746c0.943-0.891,1.907-1.757,2.895-2.598
	c0.987-0.844,1.995-1.661,3.023-2.453c1.026-0.792,2.073-1.557,3.141-2.297c1.068-0.74,2.152-1.452,3.254-2.137
	c1.104-0.682,2.224-1.339,3.359-1.969c1.135-0.628,2.286-1.227,3.453-1.797c1.164-0.568,2.342-1.108,3.535-1.621
	c1.195-0.511,2.401-0.99,3.617-1.438c1.216-0.451,2.444-0.87,3.683-1.258c1.24-0.388,2.487-0.745,3.742-1.07
	c23.965-6.141,43.109,1.414,63.465,13.324c1.323-5.932,2.872-11.806,4.648-17.621c8.515-28.578,22.785-52.996,50.383-67.09
	c25.363-12.957,50.016-11.234,76.336-3.055c-2.832-28.227-2.094-56.641,15.574-80.5c19.082-25.77,49.047-32.152,78.852-36.051
	c8.176-40.77,21.82-79.641,47.929-112.559C3199.012,982.074,3249.156,956.066,3304.055,949.977z"/>
<path style="fill:#022061;" d="M2000.438,1779.965c35.156-5.527,74.941,3.883,106.082,20.223c62.262,32.668,83.859,80.98,104.121,144.656
	c16.168-10.012,32.609-18.313,51.727-20.813c25.543-3.344,50.727,5.277,70.73,21.066c33.301,26.281,43.988,63.453,48.547,103.91
	c3.273-0.566,6.453-0.965,9.777-1.137c19.039-0.965,37.086,5.148,50.863,18.578c19.41,18.918,26.074,49.219,26.121,75.566
	c0.047,24.738-6.055,52.281-24.324,70.047c-11.852,11.527-27.398,15.184-43.336,17.156c-38.211,4.734-97.914,0.949-138.625,0.902
	l-293.859-0.371l-239.699,0.648c-38.664,0.039-78.734,2.234-117.203-0.781c-9.91-0.777-19.297-2.668-28.355-6.894
	c-20.457-9.551-34.469-28.02-41.633-49.078c-12.805-37.629-10.926-90.332,7.137-126.027c10.281-20.316,27.402-36.508,49.5-43.027
	c25.414-7.496,51.684-2.125,74.359,10.508c-1.154-8.01-1.877-16.059-2.172-24.145c-1.207-33.512,9.656-69.031,33.238-93.441
	c15.918-16.473,36.758-26.996,59.973-26.52c32.363,0.66,55.594,20.207,76.316,42.598c8.754-20.871,18.508-40.59,32.133-58.777
	C1904.692,1810.984,1946.652,1787.523,2000.438,1779.965z"/>
<path style="fill:#022061;" d="M3151.445,168.634c15.273-1.214,30.277-1.545,45.551-0.019c89.57,8.95,140.086,54.418,194.695,121.114
	c19.809,0.39,38.477,0.685,57.16,8.266c39.949,16.207,58.98,51.48,74.871,89.089c4.596-1.711,9.22-3.347,13.871-4.907
	c35.023-11.63,76.152-8.812,108.996,8.158c41.621,21.509,63.008,60.989,76.77,104.048c21.359-5.352,41.074-7.363,62.824-1.68
	c32.523,8.5,59.074,30.063,75.852,58.934c19.269,33.16,25.195,69.281,15.59,106.41c-48.18,3.184-98.152,0.672-146.481,0.691
	l-273.136,0.492l-435.609-0.711l-145.043,0.094c-27.364,0.027-56.02,1.691-83.231-1.027c-15.16-1.516-28.754-6.047-41.375-14.742
	c-1.172-0.807-2.323-1.644-3.453-2.512c-1.128-0.867-2.234-1.76-3.321-2.68c-1.086-0.922-2.147-1.87-3.183-2.844
	c-1.037-0.977-2.05-1.977-3.039-3c-0.987-1.026-1.948-2.076-2.883-3.148c-0.935-1.073-1.843-2.169-2.723-3.289
	c-0.88-1.12-1.731-2.26-2.555-3.422c-0.823-1.161-1.616-2.343-2.379-3.543c-0.763-1.201-1.496-2.419-2.199-3.656
	c-0.703-1.24-1.375-2.495-2.016-3.766c-0.638-1.271-1.245-2.557-1.82-3.859c-0.576-1.302-1.118-2.617-1.629-3.945
	c-0.51-1.331-0.987-2.672-1.43-4.023c-0.442-1.354-0.852-2.718-1.227-4.09c-0.372-1.372-0.711-2.754-1.016-4.145
	c-0.307-1.391-0.578-2.788-0.813-4.191c-4.805-27.512,0.805-57.379,16.633-80.484c22.723-33.176,53.863-51.387,93.035-58.496
	c-2.105-25.398-1.457-49.73,11.992-72.393c8.633-14.545,21.887-26.262,38.77-29.77c19.313-4.013,36.797,2.826,52.508,13.574
	c13.524-32.089,27.352-61.485,48.59-89.411C3022.156,212.478,3080.117,178.313,3151.445,168.634z"/>
<path style="fill:#022061;" d="M2003.516,116.023c48.156-3.672,101.566,13.862,141.461,40.2c65.637,43.336,99.906,106.24,115.664,181.74
	c13.543-1.924,26.89-2.702,40.555-1.726c37.715,2.693,71.699,18.047,96.512,46.944c31.742,36.975,32.578,75.346,29.34,121.569
	c4.742,1.552,9.435,3.238,14.078,5.059c20.629,8.203,31.359,21.742,39.765,41.809c10.262,1.668,20.571,3.621,30.301,7.371
	c24.949,9.609,46.074,29.426,56.406,54.164c4.434,10.617,9.82,28.672,5.18,39.82c-13.449,4.383-116.902,1.516-137.523,1.559
	l-468.363,0.031c-180.66-0.019-361.641-2.246-542.254,0.457c3.226-30.797,14.938-60.254,32.191-85.883
	c33.563-49.863,82.195-74.207,139.699-85.586c-3.996-11.559-7.426-23.039-8.961-35.203c-4.262-33.762,2.473-70.39,24.039-97.448
	c17.719-22.225,45.981-38.056,74.426-40.179c28.93-2.16,56.035,9.282,77.488,27.956c13.246-51.211,29.734-95.534,64.172-136.77
	C1872.098,148.733,1935.594,122.235,2003.516,116.023z"/>
<path style="fill:#022061;" d="M664.891,129.695c58.816-1.958,119.539,14.152,168.559,47.105c72.426,48.685,108.332,125.512,124.953,208.452
	c3.818,0.708,7.625,1.467,11.422,2.277c39.641,8.569,68.023,31.92,89.734,65.26c23.293-22.234,50.289-36.082,82.902-37.699
	c32.328-1.598,64.582,11.254,88.328,32.961c24.484,22.387,39.258,52.98,40.02,86.309c0.73,31.93-12.176,62.098-34.594,84.645
	c-14.805,14.891-33.117,25.797-53.859,29.902c-37.719,7.465-106.449,2.981-147.496,3.055H711.914l-353.236,0.125l-106.47-0.027
	c-23.36-0.047-47.334,1.016-70.526-2.023c-3.967-0.552-7.887-1.339-11.76-2.359c-3.873-1.023-7.672-2.272-11.396-3.746
	c-3.724-1.474-7.347-3.164-10.869-5.07c-3.522-1.909-6.918-4.02-10.189-6.332c-22.729-16.113-36.357-41.023-40.793-68.211
	c-5.544-33.969,4.78-69.242,24.967-96.742c19.554-26.637,47.832-44.074,80.752-48.648c39.558-5.496,71.371,6.988,102.359,30.699
	c5.895-9.676,11.865-19.324,20.157-27.16c21.786-20.586,47.033-24.531,75.742-24.184c12.27-62.892,30.594-121.148,72.676-170.91
	c2.969-3.516,6.022-6.955,9.16-10.319c3.141-3.364,6.362-6.647,9.664-9.85c3.305-3.203,6.686-6.323,10.145-9.358
	c3.458-3.035,6.99-5.982,10.594-8.841c3.604-2.859,7.277-5.627,11.02-8.304c3.745-2.676,7.552-5.258,11.422-7.745
	c3.872-2.487,7.803-4.876,11.793-7.168c3.99-2.291,8.034-4.482,12.133-6.572c4.099-2.09,8.247-4.077,12.445-5.961
	c4.198-1.884,8.44-3.662,12.727-5.334c4.286-1.672,8.612-3.237,12.977-4.695c4.365-1.457,8.763-2.805,13.195-4.043
	c4.432-1.239,8.892-2.366,13.379-3.382s8.996-1.921,13.527-2.712c4.534-0.792,9.083-1.471,13.648-2.036
	C655.724,130.484,660.302,130.032,664.891,129.695z"/>
<path style="fill:#022061;" d="M677.906,3280.004c53.265-7.152,107.836,11.953,151.031,42.34c50.176,35.301,82.422,86.918,93.121,147.113
	c4.604-0.471,9.214-0.892,13.828-1.262c2.318-0.198,4.639-0.339,6.965-0.422c2.323-0.086,4.648-0.113,6.977-0.082
	c2.326,0.031,4.648,0.121,6.969,0.269c2.323,0.146,4.641,0.349,6.953,0.61c2.31,0.26,4.613,0.578,6.91,0.953
	c2.294,0.375,4.579,0.806,6.855,1.293c2.273,0.49,4.534,1.034,6.781,1.633c2.247,0.602,4.479,1.256,6.695,1.965
	c2.216,0.711,4.413,1.477,6.59,2.297c2.177,0.818,4.332,1.69,6.465,2.617c2.135,0.924,4.246,1.902,6.332,2.934
	c2.086,1.029,4.144,2.109,6.176,3.242c2.031,1.133,4.034,2.315,6.008,3.547c1.974,1.229,3.917,2.508,5.828,3.836
	c1.909,1.328,3.785,2.702,5.629,4.121c1.841,1.419,3.647,2.884,5.418,4.395c36.082,31.273,47.348,71.898,50.91,118.008
	c15.43,8.965,30.656,17.688,43.871,29.821c1.37,1.232,2.706,2.499,4.008,3.801c1.305,1.299,2.576,2.631,3.813,3.996
	c1.24,1.365,2.442,2.761,3.605,4.188c1.167,1.425,2.297,2.877,3.391,4.359c1.094,1.484,2.148,2.993,3.164,4.527
	c1.018,1.536,1.996,3.098,2.933,4.684c0.938,1.586,1.835,3.194,2.692,4.824c0.857,1.63,1.672,3.281,2.445,4.953
	c0.773,1.672,1.504,3.364,2.191,5.074c0.688,1.708,1.331,3.432,1.93,5.172c0.601,1.742,1.157,3.498,1.668,5.269
	c0.51,1.769,0.977,3.55,1.399,5.344c0.422,1.792,0.798,3.594,1.129,5.406c0.331,1.813,0.615,3.632,0.852,5.457
	c0.24,1.828,0.432,3.66,0.578,5.496c0.146,1.836,0.245,3.674,0.297,5.516c1.25,33.266-8.851,66.293-32.344,90.539
	c-2.008,2.065-4.09,4.052-6.246,5.961c-2.156,1.909-4.383,3.733-6.68,5.472c-2.294,1.742-4.651,3.394-7.07,4.957
	c-2.419,1.563-4.895,3.031-7.426,4.406c-2.531,1.375-5.111,2.652-7.738,3.832c-2.628,1.179-5.296,2.259-8.004,3.238
	c-2.708,0.979-5.45,1.855-8.226,2.629c-2.773,0.771-5.573,1.437-8.398,1.996c-40.469,8.434-109.231,3.504-152,3.359l-283.188-0.715
	l-243.59-0.066c-40.525,0.168-94.78,5.051-134.005-2.629c-18.847-3.691-36.778-12.52-51.694-24.563
	c-1.626-1.31-3.219-2.659-4.778-4.047s-3.083-2.813-4.572-4.273c-1.488-1.463-2.94-2.964-4.355-4.5
	c-1.414-1.534-2.79-3.103-4.126-4.707c-1.337-1.602-2.633-3.237-3.889-4.906c-1.256-1.667-2.47-3.363-3.642-5.09
	c-1.172-1.729-2.3-3.484-3.386-5.266c-1.085-1.784-2.125-3.594-3.121-5.43c-0.995-1.833-1.945-3.691-2.849-5.574
	c-0.904-1.88-1.76-3.782-2.569-5.707s-1.571-3.867-2.284-5.828c-0.713-1.964-1.378-3.941-1.993-5.934
	c-0.615-1.995-1.181-4.004-1.697-6.027c-0.516-2.023-0.982-4.057-1.397-6.102c-0.415-2.047-0.78-4.102-1.094-6.164
	c-0.314-2.065-0.576-4.136-0.787-6.211c-0.25-2.19-0.446-4.385-0.587-6.586c-0.141-2.203-0.226-4.406-0.257-6.61
	c-0.031-2.206-0.006-4.41,0.074-6.613c0.08-2.206,0.215-4.406,0.405-6.602c0.19-2.198,0.434-4.389,0.734-6.574
	c0.299-2.185,0.653-4.36,1.062-6.527c0.408-2.169,0.871-4.326,1.387-6.469c0.516-2.143,1.086-4.272,1.709-6.387
	c0.623-2.117,1.298-4.216,2.026-6.297c0.728-2.083,1.507-4.146,2.338-6.188s1.713-4.063,2.645-6.063
	c0.932-1.998,1.914-3.971,2.945-5.922c1.031-1.951,2.11-3.873,3.237-5.766c1.127-1.896,2.301-3.763,3.521-5.602
	c1.22-1.836,2.486-3.64,3.797-5.414c1.311-1.773,2.665-3.513,4.063-5.219c26.21-32.199,55.869-43.906,96.643-48.293
	c-5.4-34.574-2.848-68.941,15.425-99.48c1.011-1.698,2.063-3.371,3.156-5.02c1.094-1.646,2.228-3.263,3.402-4.852
	c1.174-1.591,2.387-3.153,3.638-4.684c1.252-1.528,2.54-3.026,3.866-4.492c1.326-1.466,2.687-2.898,4.084-4.297
	c1.397-1.399,2.828-2.762,4.293-4.09c1.465-1.325,2.962-2.614,4.49-3.867c1.529-1.255,3.088-2.47,4.677-3.645
	c1.589-1.174,3.206-2.31,4.852-3.406c1.645-1.094,3.317-2.147,5.015-3.16c1.698-1.013,3.419-1.983,5.166-2.91
	c1.746-0.925,3.514-1.808,5.304-2.648c1.79-0.839,3.599-1.632,5.428-2.379c1.829-0.75,3.676-1.453,5.54-2.109
	c1.864-0.659,3.743-1.27,5.638-1.832c1.895-0.565,3.802-1.082,5.722-1.551c34.995-8.383,65.265,1.543,94.714,19.609
	c10.563-34.777,25.012-64.523,47.305-93.422C562.57,3315.379,616.676,3287.641,677.906,3280.004z"/>
<path style="fill:#022061;" d="M1998.445,2514.426c47.352-5.895,100.688,7.934,141.039,32.605c67.926,41.535,98.613,93.191,116.973,168.621
	c15.391-5.605,31.363-8.734,47.781-8.351c2.078,0.065,4.152,0.181,6.223,0.348c2.073,0.167,4.139,0.384,6.199,0.652
	c2.063,0.266,4.116,0.582,6.16,0.949c2.047,0.365,4.083,0.78,6.109,1.246s4.039,0.98,6.039,1.543c2,0.562,3.986,1.175,5.957,1.836
	c1.971,0.659,3.926,1.365,5.863,2.117c1.935,0.755,3.851,1.556,5.75,2.402c1.898,0.849,3.775,1.742,5.629,2.68
	s3.685,1.921,5.492,2.949c1.807,1.026,3.589,2.097,5.344,3.211c1.755,1.112,3.482,2.267,5.18,3.465
	c1.698,1.198,3.366,2.436,5.004,3.715c1.641,1.279,3.248,2.596,4.82,3.953c1.576,1.357,3.117,2.75,4.625,4.18
	c1.508,1.432,2.979,2.899,4.414,4.402c30.875,32.762,35.449,72.18,34.508,115.289c3.44,1.495,6.808,3.141,10.102,4.938
	c3.294,1.794,6.501,3.732,9.621,5.813c3.122,2.083,6.145,4.299,9.066,6.648c2.925,2.352,5.738,4.828,8.441,7.43
	c22.711,21.93,32.816,49.992,33.16,81.137c0.336,30.523-9.625,59.453-31.418,81.414c-2.391,2.378-4.862,4.667-7.414,6.871
	c-2.555,2.203-5.182,4.314-7.883,6.332c-2.703,2.016-5.474,3.934-8.312,5.754c-2.839,1.82-5.739,3.538-8.7,5.153
	c-2.96,1.615-5.974,3.122-9.039,4.523c-3.067,1.401-6.181,2.691-9.34,3.871c-3.159,1.182-6.355,2.25-9.59,3.203
	c-3.234,0.953-6.499,1.79-9.793,2.512c-41.75,9.258-107.836,4.039-151.629,4.023l-275.59,0.41l-233.609-0.434
	c-40.602,0.016-89.168,4.348-128.832-2.262c-21.613-3.602-42.195-11.902-59.613-25.301c-28.906-22.234-46.656-55.039-51.34-91.043
	c-0.297-2.245-0.539-4.495-0.727-6.75c-0.185-2.255-0.315-4.513-0.391-6.773c-0.073-2.263-0.09-4.526-0.051-6.789
	c0.036-2.263,0.13-4.524,0.281-6.781c0.151-2.258,0.358-4.51,0.621-6.758c0.26-2.25,0.578-4.491,0.953-6.723
	c0.373-2.232,0.801-4.453,1.285-6.664c0.484-2.211,1.022-4.409,1.613-6.594c0.594-2.182,1.241-4.35,1.941-6.504
	c0.701-2.151,1.454-4.284,2.262-6.398c0.805-2.115,1.663-4.208,2.574-6.281c0.909-2.07,1.87-4.119,2.883-6.145
	c1.013-2.023,2.074-4.021,3.184-5.992c1.112-1.971,2.272-3.914,3.48-5.828c1.208-1.914,2.462-3.797,3.762-5.648
	c1.302-1.854,2.648-3.673,4.039-5.457c23.238-29.543,60.816-49.043,97.93-53.152c-2.344-10.82-4.813-22.09-5.484-33.16
	c-0.112-1.758-0.181-3.518-0.207-5.281c-0.023-1.763-0.003-3.525,0.063-5.285c0.065-1.763,0.174-3.522,0.328-5.277
	s0.352-3.505,0.594-5.25c0.242-1.748,0.529-3.486,0.859-5.215c0.331-1.732,0.704-3.454,1.121-5.168
	c0.417-1.711,0.876-3.411,1.379-5.102s1.048-3.366,1.637-5.027c0.586-1.662,1.215-3.307,1.887-4.938
	c0.669-1.63,1.38-3.242,2.133-4.836s1.544-3.168,2.375-4.722c0.831-1.552,1.701-3.083,2.609-4.594s1.856-2.998,2.84-4.461
	c0.984-1.461,2.004-2.897,3.059-4.309c1.057-1.412,2.148-2.794,3.273-4.148c1.128-1.357,2.288-2.684,3.48-3.98
	c16.934-18.473,40.414-30.766,65.66-31.789c30.254-1.23,54.188,14.266,75.383,33.906c9.766-37.98,24.262-74.09,49.207-104.816
	C1875.832,2552.621,1932.129,2521.527,1998.445,2514.426z"/>
<path style="fill:#022061;" d="M669.348,2516.406c3.576-0.203,7.154-0.29,10.734-0.262c3.581,0.031,7.156,0.178,10.727,0.441
	c3.573,0.263,7.131,0.643,10.676,1.141c3.547,0.495,7.074,1.105,10.582,1.832c3.505,0.727,6.984,1.566,10.438,2.519
	c3.451,0.953,6.867,2.017,10.25,3.192c3.383,1.177,6.723,2.462,10.019,3.855c3.299,1.393,6.549,2.893,9.75,4.5
	c49.719,25.359,75.93,69.258,92.508,120.727c6.371-3.676,13.375-6.891,20.258-9.516c2.32-0.872,4.661-1.688,7.023-2.445
	s4.742-1.456,7.141-2.094c2.396-0.638,4.806-1.216,7.231-1.734c2.427-0.518,4.865-0.975,7.313-1.371
	c2.448-0.396,4.905-0.73,7.371-1.004c2.464-0.273,4.934-0.486,7.41-0.637c2.477-0.151,4.954-0.241,7.433-0.27
	c2.479-0.026,4.958,0.009,7.438,0.105c2.479,0.096,4.953,0.254,7.422,0.473c2.471,0.221,4.935,0.502,7.391,0.843
	c2.458,0.344,4.905,0.748,7.34,1.211c2.438,0.466,4.861,0.99,7.269,1.574c2.411,0.586,4.806,1.232,7.184,1.938
	c2.378,0.703,4.737,1.466,7.078,2.289c2.339,0.823,4.656,1.703,6.953,2.641c2.294,0.938,4.565,1.932,6.812,2.984
	c44.918,21.109,74.731,57.266,91.199,103.262c31.656-16.402,60.492-27.172,96.641-18.516c29.496,7.066,54.289,26.938,69.906,52.629
	c1.078,1.745,2.112,3.517,3.102,5.316c0.987,1.797,1.93,3.617,2.828,5.461c0.898,1.844,1.75,3.71,2.555,5.598
	c0.802,1.885,1.558,3.792,2.269,5.719c0.708,1.925,1.369,3.866,1.98,5.824c0.612,1.956,1.175,3.927,1.688,5.914
	c0.513,1.987,0.976,3.984,1.391,5.992c0.411,2.01,0.773,4.029,1.086,6.055c0.313,2.029,0.574,4.063,0.785,6.102
	c0.211,2.042,0.37,4.086,0.477,6.133c0.109,2.049,0.167,4.1,0.172,6.152c0.005,2.052-0.04,4.101-0.137,6.148
	c-0.096,2.049-0.245,4.095-0.445,6.136c-0.198,2.042-0.448,4.077-0.75,6.106c-0.299,2.031-0.651,4.052-1.055,6.063
	c-0.401,2.01-0.853,4.01-1.355,6c-7.949,30.941-27.594,60.391-55.574,76.414c-37.434,21.434-75.27,16.141-114.824,4.664
	c-7.844,22.027-17.086,41.855-33.777,58.668c-1.802,1.813-3.663,3.564-5.582,5.254c-1.922,1.687-3.896,3.31-5.922,4.867
	c-2.029,1.557-4.105,3.046-6.23,4.465c-2.128,1.422-4.3,2.77-6.516,4.043c-2.214,1.276-4.469,2.477-6.766,3.602
	c-2.297,1.125-4.628,2.173-6.992,3.145c-2.365,0.969-4.759,1.859-7.184,2.672c-2.424,0.81-4.874,1.539-7.348,2.188
	c-34.996,9.336-75.891,5.406-111.852,5.363l-140.309-0.273l-251.586,0.156c-42.582,0.043-87.023,2.93-129.333-0.922
	c-17.575-1.602-36.287-4.945-51.933-13.453c-31.361-17.055-47.145-44.762-57.241-77.66c-19.405,0.445-37.491,0.449-56.226-5.379
	c-28.051-8.723-50.699-27.516-63.563-54.016c-14.493-29.859-14.306-63.949-3.363-94.891c10.211-28.871,30.908-51.895,58.91-64.57
	c34.832-15.766,66.459-9.941,100.616,3.348c0.181-0.535,0.353-1.078,0.543-1.613c17.264-48.739,51.499-92.75,98.917-115.262
	c42.747-20.289,90.192-20.742,134.251-4.871c9.191-18.84,18.395-37.242,31.766-53.531
	C585.891,2537.797,623.59,2520.98,669.348,2516.406z"/>
<path style="fill:#022061;" d="M685.945,922.754c43.184,0.84,81.133,10.809,117.93,34.023c61.293,38.668,96.191,97.148,111.621,166.531
	c11.833-2.872,23.839-4.378,36.016-4.516c2.365-0.031,4.729-0.004,7.094,0.082c2.362,0.089,4.721,0.234,7.078,0.438
	c2.357,0.206,4.706,0.469,7.047,0.789c2.344,0.32,4.677,0.699,7,1.137c2.326,0.435,4.638,0.928,6.938,1.481
	c2.299,0.552,4.583,1.161,6.851,1.828c2.271,0.664,4.524,1.385,6.758,2.164c2.232,0.776,4.444,1.608,6.637,2.496
	c2.193,0.888,4.362,1.829,6.508,2.824c2.143,0.995,4.262,2.043,6.355,3.145c2.094,1.099,4.159,2.25,6.195,3.453
	c2.036,1.203,4.04,2.456,6.012,3.758c1.974,1.305,3.914,2.656,5.82,4.055c1.909,1.398,3.78,2.844,5.613,4.336
	c1.836,1.492,3.633,3.03,5.391,4.613c1.758,1.581,3.475,3.204,5.152,4.871c31.563,31.715,42.238,72.285,42.027,115.902
	c26.625,4.348,49.645,11.973,69.656,31.215c1.315,1.26,2.599,2.553,3.852,3.879c1.25,1.323,2.468,2.678,3.652,4.066
	c1.182,1.385,2.329,2.799,3.441,4.242c1.115,1.443,2.191,2.913,3.23,4.41c1.036,1.497,2.036,3.02,3,4.566
	c0.964,1.547,1.887,3.117,2.77,4.711s1.727,3.21,2.531,4.848c0.802,1.635,1.563,3.29,2.281,4.965
	c0.721,1.674,1.398,3.366,2.031,5.074c0.635,1.708,1.228,3.431,1.777,5.168c0.547,1.737,1.051,3.487,1.512,5.25
	c0.461,1.763,0.878,3.536,1.25,5.321c0.372,1.784,0.699,3.577,0.98,5.379c0.281,1.8,0.518,3.605,0.711,5.418
	c0.19,1.813,0.336,3.628,0.438,5.445c0.099,1.82,0.154,3.642,0.164,5.465c0.027,30.621-13.961,60.797-35.649,82.133
	c-1.857,1.857-3.784,3.639-5.781,5.348c-1.995,1.708-4.053,3.336-6.176,4.883c-2.122,1.549-4.302,3.013-6.539,4.391
	c-2.237,1.378-4.523,2.668-6.859,3.871c-2.336,1.201-4.715,2.309-7.137,3.324c-2.425,1.016-4.883,1.936-7.375,2.762
	c-2.495,0.826-5.017,1.552-7.566,2.18c-2.552,0.63-5.124,1.16-7.715,1.59c-21.23,3.683-43.664,2.058-65.164,2.066l-96.992,0.043
	l-361.352,0.094l-239.956,0.051c-41.576,0.051-92.759,4.641-133.198-3.324c-32.911-6.48-61.05-24.117-79.605-52.246
	c-19.662-29.813-26.139-64.484-18.619-99.387c0.461-2.242,0.978-4.473,1.55-6.692c0.572-2.216,1.199-4.418,1.88-6.605
	c0.681-2.185,1.416-4.353,2.205-6.504c0.789-2.149,1.631-4.277,2.525-6.387c0.894-2.107,1.841-4.191,2.839-6.254
	c0.998-2.06,2.047-4.094,3.146-6.102c1.099-2.01,2.247-3.991,3.445-5.941c1.197-1.953,2.442-3.875,3.735-5.766
	c1.292-1.888,2.631-3.745,4.016-5.57c1.385-1.823,2.814-3.611,4.288-5.363c1.474-1.753,2.99-3.467,4.548-5.145
	c1.559-1.68,3.158-3.318,4.798-4.914c1.64-1.599,3.318-3.156,5.036-4.672c1.717-1.513,3.471-2.983,5.261-4.41
	c1.79-1.43,3.615-2.813,5.474-4.148c1.859-1.339,3.75-2.629,5.673-3.871c36.407-23.098,72.283-24.852,113.317-15.492
	c-3.516-10.738-6.678-21.441-7.711-32.754c-2.797-30.605,6.327-62.668,26.717-85.984c18.973-21.695,47.807-34.855,76.528-36.238
	c30.326-1.465,56.037,10.91,77.873,30.918c9.445-41.512,30.148-84.508,58.844-116.141
	C563.922,950.434,620.641,925.723,685.945,922.754z"/>
<path style="fill:#022061;" d="M3186.906,3323.004c25.328-2.668,51.242-0.519,75.273,8.172c43.379,15.688,86.258,53.305,105.578,95.285
	c20.695-15.418,42.418-27.215,67.613-33.504c39.781-9.926,80.457-1.637,115.121,19.695c47.273,29.09,67.746,70.066,79.969,122.543
	c19.66-4.93,38.804-9.348,59.145-9.941c48.082-1.402,94.789,18.203,129.289,51.41c34.043,32.766,51.867,76.855,52.508,123.945
	c0.605,44.684-14.941,86.723-46.555,118.656c-2.536,2.573-5.158,5.059-7.863,7.457c-2.706,2.396-5.488,4.699-8.348,6.91
	c-2.859,2.208-5.791,4.319-8.793,6.332c-3,2.013-6.065,3.922-9.195,5.727c-3.13,1.807-6.318,3.507-9.563,5.098
	c-3.245,1.591-6.539,3.072-9.883,4.442c-3.346,1.372-6.733,2.629-10.16,3.769c-3.43,1.143-6.894,2.169-10.391,3.078
	c-35.535,9.078-77.125,5.074-113.668,5.063l-147.727-0.09l-398.57-0.168c-53.652-0.09-122.246,3.59-174.301-0.496
	c-7.997-0.591-15.902-1.794-23.715-3.61c-7.813-1.818-15.437-4.226-22.875-7.226c-2.341-0.948-4.658-1.953-6.949-3.016
	c-2.292-1.062-4.556-2.181-6.793-3.355c-2.237-1.172-4.444-2.4-6.621-3.684c-2.174-1.281-4.318-2.616-6.43-4.004
	c-2.109-1.388-4.185-2.828-6.227-4.32c-2.039-1.49-4.04-3.029-6.004-4.617s-3.886-3.225-5.77-4.91
	c-1.883-1.685-3.724-3.414-5.523-5.188c-1.797-1.773-3.549-3.591-5.258-5.453c-1.708-1.859-3.37-3.76-4.984-5.703
	c-1.615-1.943-3.181-3.925-4.699-5.945c-1.516-2.021-2.982-4.077-4.398-6.168c-1.414-2.091-2.777-4.217-4.09-6.379
	c-1.31-2.159-2.566-4.349-3.77-6.57c-1.203-2.221-2.352-4.47-3.445-6.746c-1.091-2.279-2.126-4.582-3.105-6.91
	c-18.301-42.91-17.734-93.125,0.063-136.094c17.469-42.191,48.914-73.496,91.265-90.543c47.52-19.129,90.508-13.207,136.629,6.191
	c-2.813-57.746,5.586-112.547,42.617-159.102C3089.309,3351.539,3134.773,3329.082,3186.906,3323.004z"/>
<linearGradient id="SVGID_1_" gradientUnits="userSpaceOnUse" x1="862.7917" y1="1761.3607" x2="560.3187" y2="2405.7153">
	<stop  offset="0" style="stop-color:#42403F"/>
	<stop  offset="1" style="stop-color:#7E7E7D"/>
</linearGradient>
<path  style="fill:url(#SVGID_1_);" d="M1274.824,2113.004c-0.404-1.656-0.849-3.301-1.336-4.934
	c-0.484-1.633-1.01-3.254-1.578-4.863c-0.568-1.607-1.175-3.198-1.82-4.773c-0.646-1.578-1.332-3.138-2.059-4.68
	c-0.724-1.542-1.487-3.065-2.289-4.57c-0.8-1.505-1.637-2.988-2.512-4.449c-0.875-1.464-1.786-2.904-2.734-4.32
	s-1.93-2.809-2.945-4.176c-1.018-1.37-2.069-2.712-3.152-4.027c-1.083-1.315-2.199-2.602-3.348-3.859
	c-1.148-1.26-2.327-2.491-3.535-3.691c-1.211-1.2-2.451-2.37-3.719-3.508c-1.268-1.138-2.564-2.244-3.887-3.316
	c-1.325-1.076-2.676-2.116-4.051-3.121c-1.375-1.005-2.775-1.977-4.199-2.914c-1.424-0.935-2.871-1.835-4.34-2.699
	c-16.902-9.973-36.926-15.324-56.453-16.398c-1.75-11.684-3.664-22.816-6.969-34.188c-8.883-34.555-26.316-66.43-52.801-90.551
	c-36.84-33.551-89.426-52.887-139.285-50.688c-12.965-1.148-26.172,0-39.152,0.586c-32.758-62.738-75.707-108.809-144.863-130.117
	c-53.168-16.379-113.871-16.293-163.852,10.297c-47.242,25.129-82.871,69.223-101.742,118.836
	c-41.531-28.215-85.141-43.004-135.657-33.328c-41.252,7.902-75.7,29.035-98.936,64.328c-18.535,28.152-26.249,58.93-29.379,92.109
	c-46.77,4.18-91.153,21.371-121.77,58.371c-22.483,27.172-34.709,62.086-30.521,97.434c3.835,32.379,22.445,64.813,48.662,84.211
	c17.297,12.801,38.846,20.293,60.208,22.156c21.637,1.891,44.415,0.305,66.157,0.25l128.427-0.246l408.41-0.434l239.383,0.41
	c46.051,0.121,96.828,4.387,142.117-3.804c23.242-4.207,47.313-24.082,59.863-43.086
	C1274.781,2171.602,1281.508,2140.746,1274.824,2113.004z"/>
<path style="fill:#022061;" d="M3326.578,2526.094c56.879-6.707,117.574,10.105,164.477,42.465c3.182,2.156,6.31,4.391,9.383,6.703
	c3.073,2.313,6.087,4.701,9.043,7.164c2.953,2.461,5.844,4.995,8.672,7.602c2.828,2.604,5.59,5.277,8.285,8.02
	c2.698,2.745,5.324,5.553,7.879,8.426c2.557,2.873,5.042,5.806,7.453,8.801c2.409,2.998,4.743,6.052,7.004,9.164
	c2.258,3.112,4.439,6.277,6.543,9.496c2.102,3.221,4.122,6.492,6.063,9.813s3.795,6.688,5.566,10.102
	c1.773,3.412,3.461,6.866,5.063,10.363c1.602,3.495,3.116,7.029,4.543,10.602c1.425,3.57,2.76,7.175,4.008,10.813
	c1.247,3.638,2.403,7.304,3.469,11c1.065,3.695,2.038,7.414,2.918,11.156c0.883,3.745,1.67,7.508,2.363,11.289
	c10.289-0.438,20.598-1.09,30.894-1.086c37.407,0.004,75.641,17.387,101.469,44.168c31.172,32.324,39.012,69.895,38.086,113.492
	c17.848,7.985,33.871,15.883,48.254,29.387c1.513,1.401,2.991,2.839,4.434,4.313c1.44,1.474,2.844,2.983,4.211,4.527
	c1.367,1.542,2.695,3.118,3.984,4.73c1.289,1.61,2.536,3.25,3.742,4.922c1.208,1.672,2.374,3.373,3.496,5.102
	c1.122,1.729,2.202,3.486,3.238,5.27c1.034,1.781,2.023,3.589,2.969,5.422s1.845,3.689,2.699,5.566
	c0.852,1.875,1.658,3.772,2.418,5.691c0.758,1.917,1.469,3.852,2.133,5.805c0.661,1.95,1.275,3.918,1.84,5.902
	c0.565,1.982,1.081,3.978,1.547,5.988c0.466,2.008,0.882,4.026,1.25,6.055c0.365,2.029,0.68,4.066,0.946,6.113
	c0.263,2.044,0.475,4.094,0.637,6.148c0.164,2.054,0.276,4.113,0.336,6.176c0.938,33.34-10.109,64.574-33.488,88.609
	c-2.023,2.065-4.123,4.052-6.297,5.961c-2.177,1.906-4.421,3.729-6.73,5.469c-2.313,1.737-4.688,3.385-7.125,4.945
	c-2.437,1.557-4.93,3.022-7.477,4.395c-2.547,1.37-5.142,2.642-7.785,3.816c-2.643,1.177-5.327,2.251-8.051,3.223
	c-2.724,0.971-5.48,1.84-8.27,2.605c-2.792,0.763-5.607,1.421-8.445,1.973c-39.871,7.961-118.074,3.531-162.68,3.5l-314.773,0.105
	l-241.395,0.313c-37.699-0.098-76.074,1.148-113.695-1.156c-41.297-2.535-77.246-14.09-104.965-46.121
	c-23.781-27.48-37.699-64.938-34.613-101.406c2.934-34.699,21.012-69.23,47.645-91.609c28.867-24.254,60.539-29.137,96.719-26.207
	c-7.461-33.703-6.875-65.613,9.945-96.609c16.109-29.691,44.996-50.715,77.195-59.941c41.031-11.754,72.301-0.082,108.246,19.492
	c10.047-36.184,23.332-67.504,46.496-97.438c2.367-3.102,4.81-6.143,7.328-9.125c2.518-2.979,5.109-5.895,7.773-8.746
	c2.664-2.852,5.397-5.635,8.199-8.352c2.802-2.714,5.671-5.357,8.605-7.93c2.935-2.57,5.932-5.066,8.992-7.488
	s6.177-4.767,9.352-7.035c3.177-2.266,6.409-4.452,9.695-6.559c3.284-2.104,6.62-4.125,10.008-6.063
	c3.385-1.94,6.818-3.794,10.297-5.563c3.479-1.766,7-3.444,10.562-5.035c3.563-1.594,7.163-3.096,10.801-4.508
	c3.638-1.411,7.309-2.732,11.012-3.961s7.435-2.365,11.195-3.406c3.76-1.042,7.544-1.99,11.352-2.844s7.634-1.612,11.48-2.273
	C3318.846,2527.129,3322.706,2526.563,3326.578,2526.094z"/>
<g>
	<path style="fill:#022061;" d="M2086.527,3315.23c41.711-5.246,87.613,7.105,124.73,25.543c67.547,33.559,108.766,85.996,132.684,156.465
		c22.82,2.558,46.086,5.742,66.352,17.328c38.27,21.875,53.457,60.602,65.188,100.805l2.082-0.043
		c35.684-0.547,67.086,9.988,92.824,35.176c1.502,1.463,2.967,2.964,4.395,4.5c1.427,1.539,2.815,3.112,4.164,4.719
		c1.346,1.607,2.652,3.246,3.918,4.918c1.266,1.675,2.488,3.379,3.668,5.113c1.18,1.734,2.315,3.497,3.406,5.289
		c1.091,1.792,2.137,3.611,3.137,5.457c0.997,1.844,1.949,3.711,2.855,5.602c0.906,1.893,1.763,3.807,2.57,5.742
		c0.81,1.937,1.57,3.892,2.281,5.863c0.708,1.974,1.368,3.965,1.98,5.973c0.609,2.008,1.168,4.029,1.676,6.063
		c0.51,2.036,0.967,4.083,1.371,6.141c0.406,2.06,0.76,4.128,1.063,6.203c0.3,2.075,0.548,4.157,0.746,6.246
		c0.195,2.088,0.339,4.181,0.43,6.277c0.091,2.094,0.13,4.19,0.117,6.289c-0.129,34.965-15.797,68.648-40.5,93.055
		c-18.004,17.789-39.016,29.145-63.992,33.758c-29.762,5.496-61.539,3.446-91.742,3.453l-131.313-0.203l-404.906,0.051
		l-240.918-0.32c-40.996,0.027-85.469,4.203-125.84-2.355c-22.797-3.699-44.395-11.816-62.563-26.301
		c-29.191-23.273-49.461-58.863-53.402-96.074c-0.214-2.091-0.376-4.186-0.488-6.285s-0.172-4.199-0.18-6.301
		c-0.005-2.104,0.039-4.206,0.133-6.305c0.096-2.099,0.245-4.195,0.445-6.289c0.198-2.094,0.448-4.18,0.75-6.258
		c0.302-2.081,0.656-4.153,1.063-6.215c0.404-2.065,0.858-4.117,1.363-6.156c0.505-2.042,1.06-4.069,1.664-6.082
		c0.607-2.013,1.262-4.01,1.965-5.992c0.703-1.979,1.456-3.941,2.258-5.886c0.799-1.943,1.647-3.865,2.543-5.766
		c0.896-1.904,1.837-3.782,2.824-5.637c0.987-1.857,2.02-3.687,3.098-5.492c1.078-1.805,2.201-3.582,3.367-5.332
		c1.164-1.748,2.371-3.466,3.621-5.156c1.253-1.69,2.544-3.349,3.875-4.977c22.137-26.652,54.098-42.512,88.324-45.633
		c6.191-31.172,14.848-59.523,36.102-83.949c1.487-1.719,3.017-3.4,4.59-5.043c1.57-1.643,3.181-3.246,4.832-4.809
		c1.651-1.565,3.34-3.087,5.066-4.566c1.724-1.479,3.486-2.916,5.285-4.309c1.797-1.39,3.626-2.737,5.488-4.039
		c1.865-1.302,3.76-2.557,5.688-3.766c1.924-1.208,3.879-2.368,5.863-3.48c1.982-1.109,3.991-2.171,6.027-3.184
		c2.036-1.011,4.096-1.971,6.18-2.883c2.083-0.909,4.189-1.766,6.316-2.571c2.125-0.805,4.27-1.557,6.434-2.258
		c2.161-0.698,4.34-1.342,6.535-1.934s4.404-1.127,6.625-1.609c2.224-0.484,4.457-0.911,6.699-1.281
		c2.242-0.372,4.492-0.688,6.75-0.945c2.26-0.26,4.525-0.465,6.793-0.613c32.297-1.98,60.945,8.996,84.953,30.219
		c14.422-16.387,30.551-28.719,51.106-36.383c31.383-11.703,68.129-11.395,98.586,2.715c7.039-13.294,14.763-26.178,23.172-38.652
		c8.411-12.471,17.458-24.464,27.141-35.977C1969.649,3343.922,2018.894,3321.855,2086.527,3315.23z"/>
	<path style="fill:#022061;"  d="M2075.903,3342.586c5.833-0.177,11.665-0.148,17.496,0.086c5.831,0.237,11.646,0.678,17.446,1.324
		c5.8,0.646,11.569,1.496,17.309,2.551c5.74,1.055,11.435,2.311,17.086,3.77c5.651,1.456,11.243,3.109,16.777,4.961
		c5.534,1.854,10.996,3.9,16.387,6.137c5.388,2.24,10.691,4.667,15.91,7.281c5.216,2.612,10.335,5.406,15.355,8.383
		c52.84,31.816,87.316,75.602,102.438,135.391c-29.18-64.477-54.844-99.898-117.684-135.57
		c-25.547-13.828-54.633-22.054-83.43-25.242c-53.957-5.969-110.906,12.223-153.445,45.746
		c-14.808,11.672-27.648,25.672-42.476,37.371l-1.789,1.391c4.706-8.497,10.148-16.495,16.328-23.992
		C1967.078,3367.484,2019.129,3347.047,2075.903,3342.586z"/>
</g>
<path style="fill:#022061;" d="M1873.621,893.137c17.926-2.117,36.988-2.188,54.898,0.297c53.844,7.469,95.078,36.75,127.438,79.09
	c29.258-10.215,60.387-14.063,90.617-5.492c41.43,11.746,66.035,39.379,86.047,75.945l4.977-2.203
	c42.063-18.492,89.305-21.684,132.434-4.621c54.637,21.613,82.379,63.668,104.906,115.297c8.176,5.063,17.176,10.02,24.43,16.375
	c25.668,22.496,32.969,48.82,35.121,81.5c27.984,8.746,51.035,23.164,67.66,47.734c18.785,27.758,24.984,63.195,18.137,95.867
	c-6.426,30.668-23.856,57.637-50.684,74.371c-30.539,19.051-62.777,19.664-96.703,12.149c-5.377,8.167-11.435,15.794-18.172,22.883
	c-1.854,1.877-3.752,3.709-5.695,5.496c-1.943,1.786-3.927,3.525-5.954,5.215c-2.026,1.69-4.092,3.329-6.199,4.918
	c-2.107,1.589-4.251,3.126-6.434,4.613c-2.18,1.484-4.395,2.915-6.645,4.293c-2.253,1.38-4.535,2.703-6.848,3.969
	c-2.315,1.268-4.659,2.479-7.031,3.633c-2.375,1.154-4.776,2.249-7.203,3.285c-2.425,1.036-4.874,2.014-7.348,2.934
	c-2.474,0.919-4.969,1.777-7.484,2.574c-2.516,0.797-5.049,1.533-7.601,2.207c-2.55,0.675-5.115,1.286-7.696,1.836
	c-2.583,0.552-5.177,1.04-7.781,1.465c-2.604,0.424-5.217,0.785-7.84,1.082c-2.62,0.297-5.247,0.53-7.883,0.699
	c-2.633,0.172-5.268,0.279-7.906,0.32c-48.582,0.84-87.309-19.117-121.418-52.324c-5.52,8.688-12.239,17.254-19.699,24.371
	c-23.32,22.254-49.152,28.465-80.309,27.793c-33.004-5.898-53.637-18.816-77.012-42.183c-9.297,15.066-18.645,28.461-32.289,39.941
	c-29.535,24.852-70.664,34.105-108.524,30.621c-52.258-4.809-96.289-30.481-129.258-70.562
	c-16.437,18.519-33.695,31.918-57.242,40.117c-36.109,12.57-79.43,11.715-113.984-5.297c-26.086-12.844-44.453-33.77-53.895-61.223
	c-34.25-6.324-66.93-16.359-93.508-39.941c-30.367-26.945-45.109-68.359-47.281-108.125c-2.324-42.508,7.402-91.582,37.094-123.82
	c25.082-27.234,56.219-33.18,91.156-34.613c0.164-0.606,0.316-1.215,0.492-1.817c6.965-23.828,18.824-47.855,41.742-59.91
	c21.316-11.207,45.492-9.981,67.816-2.793c18.629-23.719,33.813-35.937,62.586-46.308c0.495-4.32,1.126-8.62,1.895-12.898
	s1.672-8.529,2.711-12.75s2.212-8.406,3.52-12.555c1.307-4.146,2.746-8.246,4.316-12.301c1.568-4.055,3.264-8.055,5.09-12
	c1.825-3.945,3.775-7.83,5.848-11.652c2.073-3.82,4.266-7.572,6.578-11.254c2.312-3.682,4.741-7.286,7.285-10.813
	C1775.629,925.769,1822.352,901.672,1873.621,893.137z"/>
<path style="fill:#022061;" d="M3187.449,1666.82c15.945-0.016,31.449,0.93,47.074,4.332c50.719,11.043,90.75,41.418,118.605,84.672
	c6.59-4.551,13.254-8.813,20.516-12.238c23.926-11.277,52.188-11.312,76.633-1.621c34.168,13.547,53.379,39.48,67.223,72.469
	c4.317-2.362,8.733-4.525,13.246-6.488c4.513-1.966,9.105-3.725,13.777-5.277c4.669-1.555,9.4-2.896,14.191-4.023
	c4.792-1.13,9.624-2.043,14.496-2.738c47.703-6.531,93.566,7.855,131.453,36.797c41.207,31.477,37.566,43.93,62.613,81.23
	c6.86,10.211,17.571,18.938,26.199,27.664c28.277,28.602,41.852,56.965,47.348,96.848c8.395,1.059,16.5,2.371,24.609,4.883
	c26.531,8.223,47.418,25.797,59.996,50.508c14.766,29.008,16.914,61.555,6.602,92.406c-0.573,1.75-1.198,3.486-1.875,5.207
	c-0.677,1.719-1.38,3.421-2.109,5.105c-0.755,1.685-1.55,3.351-2.383,4.996c-0.833,1.646-1.719,3.27-2.656,4.871
	c-0.912,1.604-1.862,3.184-2.852,4.738c-0.99,1.555-2.019,3.083-3.086,4.586c-1.068,1.505-2.175,2.982-3.32,4.43
	c-1.146,1.45-2.318,2.871-3.515,4.262c-1.224,1.391-2.474,2.75-3.75,4.078c-1.284,1.328-2.598,2.624-3.941,3.887
	c-1.344,1.266-2.719,2.496-4.125,3.691c-1.406,1.196-2.84,2.355-4.301,3.48c-1.464,1.123-2.953,2.21-4.469,3.262
	c-1.518,1.049-3.061,2.061-4.629,3.035c-1.565,0.977-3.155,1.911-4.77,2.805c-1.612,0.896-3.246,1.751-4.902,2.566
	c-32.621,16.168-63.301,10.727-96.035-0.156c-7.711,12.359-16.626,23.78-26.746,34.262c-29.125,29.801-68.227,45.602-109.801,45.512
	c-50.429-0.105-89.961-23.32-124.515-58.41c-2.48,6.332-5.059,12.582-8.277,18.574c-15.816,29.441-39.148,43.871-70.383,53.445
	c-41.824,5.676-71.691-2.277-107.008-25.324c-0.93,1.023-1.871,2.038-2.824,3.043c-33.602,35.242-75.832,49.852-123.984,50.734
	c-61.321,1.125-106.332-24.656-149.613-66.164c-1.547,1.273-3.113,2.523-4.699,3.75c-34.961,26.926-82.535,35.43-125.512,29.191
	c-50.574-7.34-89.188-34.688-119.063-75.211c-30.512-8.355-59.597-20.105-83.266-41.738c-31.019-28.36-48.777-69.594-50.32-111.359
	c-1.59-43.172,14.77-87.785,44.59-119.223c29.203-30.785,63.434-42.351,105.004-43.453c7.973-23.613,20.453-45.832,42.867-58.527
	c23.18-13.129,45.828-10.008,70.234-3.582c15.586-26.473,29.504-38.023,58.598-47.879c12.019-40.648,26.308-73.879,54.797-105.891
	C3086.484,1691.148,3132.031,1670.25,3187.449,1666.82z"/>
</svg>
