<svg version="1.2" xmlns="http://www.w3.org/2000/svg" viewBox="0 0 1266 707" width="1266" height="707">
	<title>icone</title>
	<defs>
		<linearGradient id="g1" x2="1" gradientUnits="userSpaceOnUse" gradientTransform="matrix(-302.473,644.355,-975.478,-457.909,-1810.208,95.361)">
			<stop offset="0" stop-color="#42403f"/>
			<stop offset="1" stop-color="#7e7e7d"/>
		</linearGradient>
	</defs>
	<style>
		.s0 { opacity: 0;fill: #000000 } 
		.s1 { fill: #fff } 
		.s2 { fill: url(#g1) } 
	</style>
	<path class="s0" d="m-2673-1666h4000v4000h-4000z"/>
	<path class="s1" d="m631.1-716c48.7-5.4 100 11.3 138.3 41.2 54.4 42.5 80 104.8 88 171.7q6.7-1.1 13.4-1.9c21.3-2.4 43.5 3.8 59.9 17.6 26.6 22.4 30.9 53 33.7 85.4 10.3-5.9 19.6-9.9 31.6-10.9 20.4-1.8 40.2 4.7 55.4 18.6 23.7 21.8 28.2 51.1 29.9 81.5 4.9-6 9.8-11.9 16.2-16.4q2.6-1.9 5.5-3.5 2.8-1.7 5.8-3 3-1.4 6.1-2.4 3.1-1 6.3-1.8 3.2-0.7 6.5-1.1 3.2-0.4 6.5-0.4 3.3-0.1 6.5 0.2 3.3 0.2 6.5 0.8c22.8 4 42.2 18.9 54.9 38 14.1 21.2 15.3 39.7 10.8 63.9-49.2 0.5-98.4-1.5-147.6-1.7h-360.4l-609.1-0.7c-0.4-21.2-0.3-39.9 10.4-58.9q1-1.7 2-3.4 1.1-1.6 2.2-3.2 1.1-1.6 2.3-3.1 1.2-1.6 2.5-3 1.3-1.5 2.6-2.9 1.3-1.4 2.8-2.8 1.4-1.3 2.9-2.6 1.4-1.2 3-2.4 1.5-1.2 3.1-2.3 1.6-1.1 3.3-2.2 1.6-1 3.3-1.9 1.7-1 3.5-1.8 1.7-0.9 3.5-1.6 1.8-0.8 3.6-1.5 1.9-0.7 3.7-1.2 1.9-0.6 3.8-1.1c23.9-6.1 43.1 1.4 63.4 13.3q2-8.9 4.7-17.6c8.5-28.6 22.8-53 50.4-67.1 25.3-12.9 50-11.2 76.3-3-2.8-28.3-2.1-56.7 15.6-80.5 19.1-25.8 49-32.2 78.8-36.1 8.2-40.8 21.8-79.6 48-112.6 34.5-43.5 84.7-69.5 139.6-75.6z"/>
	<path class="s1" d="m-672.6 114c35.2-5.6 75 3.8 106.1 20.2 62.3 32.7 83.9 81 104.1 144.6 16.2-10 32.7-18.3 51.8-20.8 25.5-3.3 50.7 5.3 70.7 21.1 33.3 26.3 44 63.4 48.5 103.9 3.3-0.6 6.5-1 9.8-1.1 19.1-1 37.1 5.1 50.9 18.5 19.4 19 26.1 49.3 26.1 75.6 0.1 24.8-6 52.3-24.3 70.1-11.9 11.5-27.4 15.1-43.4 17.1-38.2 4.8-97.9 1-138.6 0.9l-293.8-0.4-239.7 0.7c-38.7 0-78.8 2.2-117.2-0.8-9.9-0.8-19.3-2.7-28.4-6.9-20.5-9.5-34.5-28-41.6-49.1-12.8-37.6-11-90.3 7.1-126 10.3-20.3 27.4-36.5 49.5-43 25.4-7.5 51.7-2.1 74.4 10.5q-1.8-12-2.2-24.1c-1.2-33.6 9.7-69.1 33.2-93.5 16-16.5 36.8-27 60-26.5 32.4 0.7 55.6 20.2 76.3 42.6 8.8-20.9 18.5-40.6 32.2-58.8 32.8-43.8 74.8-67.3 128.5-74.8z"/>
	<path class="s1" d="m478.4-1497.4c15.3-1.2 30.3-1.5 45.6 0 89.6 9 140.1 54.4 194.7 121.1 19.8 0.4 38.5 0.7 57.2 8.3 39.9 16.2 58.9 51.5 74.8 89.1q6.9-2.6 13.9-4.9c35-11.7 76.1-8.8 109 8.1 41.6 21.5 63 61 76.8 104.1 21.3-5.4 41-7.4 62.8-1.7 32.5 8.5 59.1 30.1 75.8 58.9 19.3 33.2 25.2 69.3 15.6 106.4-48.2 3.2-98.1 0.7-146.5 0.7l-273.1 0.5-435.6-0.7-145 0.1c-27.4 0-56.1 1.7-83.3-1-15.1-1.5-28.7-6.1-41.3-14.8q-1.8-1.2-3.5-2.5-1.7-1.3-3.3-2.6-1.7-1.4-3.2-2.9-1.6-1.5-3-3-1.5-1.5-2.9-3.1-1.4-1.6-2.8-3.3-1.3-1.7-2.5-3.5-1.2-1.7-2.4-3.5-1.1-1.8-2.2-3.6-1-1.9-2-3.8-1-1.9-1.8-3.9-0.9-1.9-1.6-3.9-0.8-2-1.5-4-0.6-2.1-1.2-4.1-0.6-2.1-1-4.2-0.5-2.1-0.8-4.2c-4.8-27.5 0.8-57.3 16.6-80.5 22.7-33.1 53.9-51.3 93-58.4-2.1-25.4-1.4-49.8 12-72.4 8.7-14.6 21.9-26.3 38.8-29.8 19.3-4 36.8 2.8 52.5 13.6 13.5-32.1 27.4-61.5 48.6-89.4 43.6-57.3 101.5-91.5 172.8-101.2z"/>
	<path class="s1" d="m-669.5-1550c48.2-3.6 101.6 13.9 141.5 40.2 65.6 43.4 99.9 106.3 115.6 181.8 13.6-2 26.9-2.7 40.6-1.8 37.7 2.7 71.7 18.1 96.5 47 31.8 37 32.6 75.3 29.3 121.5q7.2 2.4 14.1 5.1c20.7 8.2 31.4 21.8 39.8 41.8 10.3 1.7 20.6 3.6 30.3 7.4 24.9 9.6 46.1 29.4 56.4 54.2 4.4 10.6 9.8 28.6 5.2 39.8-13.5 4.4-116.9 1.5-137.5 1.5l-468.4 0.1c-180.7-0.1-361.6-2.3-542.3 0.4 3.3-30.8 15-60.2 32.2-85.9 33.6-49.8 82.2-74.2 139.7-85.5-4-11.6-7.4-23.1-8.9-35.3-4.3-33.7 2.4-70.3 24-97.4 17.7-22.2 46-38.1 74.4-40.2 29-2.1 56.1 9.3 77.5 28 13.3-51.2 29.8-95.6 64.2-136.8 44.4-53.2 107.9-79.7 175.8-85.9z"/>
	<path class="s1" d="m-2008.1-1536.3c58.8-2 119.5 14.1 168.5 47.1 72.5 48.7 108.4 125.5 125 208.5q5.7 1 11.4 2.2c39.7 8.6 68 31.9 89.8 65.3 23.3-22.2 50.2-36.1 82.9-37.7 32.3-1.6 64.5 11.2 88.3 33 24.5 22.3 39.2 52.9 40 86.3 0.7 31.9-12.2 62.1-34.6 84.6-14.8 14.9-33.1 25.8-53.8 29.9-37.8 7.5-106.5 3-147.5 3.1h-323l-353.2 0.1h-106.5c-23.4-0.1-47.3 1-70.5-2.1q-6-0.8-11.8-2.3-5.8-1.6-11.4-3.8-5.6-2.2-10.8-5-5.3-2.9-10.2-6.4c-22.8-16.1-36.4-41-40.8-68.2-5.6-34 4.8-69.2 24.9-96.7 19.6-26.7 47.9-44.1 80.8-48.7 39.6-5.5 71.4 7 102.4 30.7 5.8-9.6 11.8-19.3 20.1-27.1 21.8-20.6 47-24.6 75.8-24.2 12.2-62.9 30.5-121.2 72.6-170.9q4.5-5.3 9.2-10.3 4.7-5.1 9.7-9.9 4.9-4.8 10.1-9.4 5.2-4.5 10.6-8.8 5.4-4.3 11-8.3 5.6-4 11.4-7.7 5.8-3.8 11.8-7.2 6-3.4 12.2-6.6 6.1-3.1 12.4-5.9 6.3-2.9 12.7-5.4 6.5-2.5 13-4.7 6.6-2.2 13.2-4 6.7-1.9 13.4-3.4 6.7-1.5 13.5-2.7 6.8-1.2 13.7-2 6.8-0.9 13.7-1.4z"/>
	<path class="s1" d="m-1995.1 1614c53.3-7.1 107.8 12 151 42.3 50.2 35.3 82.5 87 93.2 147.2q6.9-0.7 13.8-1.3 3.5-0.3 7-0.4 3.4-0.2 6.9-0.1 3.5 0 7 0.3 3.5 0.2 6.9 0.6 3.5 0.4 7 0.9 3.4 0.6 6.8 1.3 3.4 0.8 6.8 1.6 3.4 1 6.7 2 3.3 1.1 6.6 2.3 3.2 1.2 6.4 2.6 3.2 1.4 6.4 3 3.1 1.5 6.2 3.2 3 1.7 6 3.6 2.9 1.8 5.8 3.8 2.9 2 5.6 4.1 2.8 2.1 5.4 4.4c36.1 31.3 47.4 71.9 50.9 118 15.5 9 30.7 17.7 43.9 29.8q2.1 1.9 4 3.8 2 2 3.8 4 1.9 2.1 3.6 4.2 1.8 2.2 3.4 4.4 1.7 2.2 3.2 4.5 1.5 2.3 2.9 4.7 1.4 2.4 2.7 4.8 1.3 2.5 2.5 5 1.1 2.5 2.2 5 1 2.6 1.9 5.2 0.9 2.6 1.7 5.3 0.7 2.6 1.4 5.3 0.6 2.7 1.1 5.4 0.5 2.7 0.8 5.5 0.4 2.7 0.6 5.5 0.2 2.7 0.3 5.5c1.3 33.3-8.8 66.3-32.3 90.5q-3 3.1-6.3 6-3.2 2.9-6.7 5.5-3.4 2.6-7 4.9-3.7 2.4-7.5 4.4-3.8 2.1-7.7 3.9-3.9 1.7-8 3.2-4.1 1.5-8.2 2.6-4.2 1.2-8.4 2c-40.5 8.5-109.3 3.5-152 3.4l-283.2-0.7-243.6-0.1c-40.5 0.2-94.8 5.1-134-2.6-18.8-3.7-36.8-12.5-51.7-24.6q-2.4-2-4.8-4-2.3-2.1-4.5-4.3-2.3-2.2-4.4-4.5-2.1-2.3-4.1-4.7-2-2.4-3.9-4.9-1.9-2.5-3.7-5.1-1.7-2.6-3.3-5.3-1.7-2.7-3.2-5.4-1.5-2.8-2.8-5.6-1.4-2.8-2.6-5.7-1.2-2.9-2.3-5.8-1-3-2-5.9-0.9-3-1.7-6.1-0.7-3-1.4-6.1-0.6-3-1-6.1-0.5-3.1-0.8-6.3-0.4-3.2-0.6-6.5-0.2-3.3-0.3-6.6 0-3.4 0.1-6.7 0.1-3.3 0.4-6.6 0.3-3.3 0.7-6.5 0.5-3.3 1.1-6.6 0.6-3.2 1.4-6.4 0.8-3.2 1.7-6.4 0.9-3.2 2-6.3 1.1-3.1 2.4-6.2 1.2-3.1 2.6-6.1 1.4-3 2.9-5.9 1.6-2.9 3.3-5.8 1.7-2.8 3.5-5.6 1.8-2.7 3.8-5.4 2-2.6 4.1-5.2c26.2-32.2 55.8-43.9 96.6-48.3-5.4-34.6-2.8-68.9 15.4-99.5q1.5-2.5 3.2-5 1.6-2.5 3.4-4.8 1.8-2.4 3.6-4.7 1.9-2.3 3.9-4.5 2-2.2 4.1-4.3 2.1-2.1 4.3-4.1 2.2-2 4.5-3.9 2.3-1.8 4.6-3.6 2.4-1.8 4.9-3.4 2.5-1.7 5-3.2 2.6-1.5 5.2-2.9 2.6-1.4 5.3-2.6 2.7-1.3 5.4-2.4 2.7-1.1 5.5-2.1 2.8-1 5.7-1.9 2.8-0.8 5.7-1.5c35-8.4 65.3 1.5 94.7 19.6 10.6-34.8 25-64.5 47.3-93.4 38-49.2 92.1-77 153.3-84.6z"/>
	<path class="s1" d="m-674.6 848.4c47.4-5.9 100.7 8 141.1 32.6 67.9 41.6 98.6 93.2 117 168.7 15.3-5.7 31.3-8.8 47.7-8.4q3.2 0.1 6.3 0.3 3.1 0.3 6.2 0.7 3.1 0.4 6.1 1 3.1 0.5 6.1 1.2 3.1 0.7 6.1 1.5 3 0.9 5.9 1.9 3 1 5.9 2.1 2.9 1.1 5.7 2.4 2.9 1.3 5.7 2.7 2.7 1.4 5.5 2.9 2.7 1.6 5.3 3.2 2.6 1.7 5.2 3.5 2.5 1.8 5 3.7 2.4 1.9 4.8 4 2.4 2 4.6 4.1 2.3 2.2 4.4 4.4c30.9 32.8 35.5 72.2 34.6 115.3q5.1 2.3 10.1 5 4.9 2.7 9.6 5.8 4.7 3.1 9 6.6 4.4 3.6 8.5 7.5c22.7 21.9 32.8 50 33.1 81.1 0.4 30.5-9.6 59.5-31.4 81.4q-3.6 3.6-7.4 6.9-3.8 3.3-7.9 6.3-4 3-8.3 5.8-4.2 2.7-8.7 5.1-4.4 2.5-9 4.6-4.6 2.1-9.4 3.8-4.7 1.8-9.6 3.2-4.8 1.5-9.7 2.5c-41.8 9.3-107.9 4.1-151.7 4.1l-275.6 0.4-233.6-0.5c-40.6 0.1-89.1 4.4-128.8-2.2-21.6-3.6-42.2-11.9-59.6-25.3-28.9-22.3-46.7-55.1-51.4-91.1q-0.4-3.3-0.7-6.7-0.3-3.4-0.4-6.8-0.1-3.4 0-6.8 0-3.4 0.3-6.8 0.2-3.3 0.6-6.7 0.4-3.4 0.9-6.7 0.6-3.4 1.3-6.7 0.7-3.3 1.6-6.6 0.9-3.3 2-6.5 1-3.2 2.2-6.4 1.2-3.2 2.6-6.3 1.4-3.1 2.9-6.1 1.5-3.1 3.2-6 1.6-3 3.4-5.8 1.9-2.9 3.8-5.7 2-2.8 4.1-5.5c23.2-29.5 60.8-49 97.9-53.1-2.4-10.8-4.8-22.1-5.5-33.2q-0.2-2.6-0.2-5.2 0-2.7 0.1-5.3 0.1-2.7 0.3-5.3 0.2-2.6 0.6-5.3 0.3-2.6 0.8-5.2 0.5-2.6 1.2-5.1 0.6-2.6 1.3-5.1 0.8-2.6 1.7-5.1 0.8-2.5 1.9-4.9 1-2.5 2.1-4.8 1.1-2.4 2.4-4.8 1.2-2.3 2.6-4.6 1.3-2.2 2.8-4.4 1.5-2.2 3.1-4.3 1.6-2.1 3.2-4.2 1.7-2 3.5-4c17-18.4 40.4-30.7 65.7-31.7 30.2-1.3 54.2 14.2 75.4 33.9 9.7-38 24.2-74.1 49.2-104.9 42.1-51.9 98.4-83 164.7-90.1z"/>
	<path class="s1" d="m-2003.7 850.4q5.4-0.3 10.8-0.3 5.4 0.1 10.7 0.5 5.4 0.4 10.7 1.1 5.3 0.8 10.6 1.9 5.2 1 10.4 2.5 5.2 1.4 10.3 3.2 5 1.7 10 3.8 4.9 2.1 9.7 4.5c49.7 25.4 76 69.3 92.5 120.8 6.4-3.7 13.4-6.9 20.3-9.6q3.5-1.3 7-2.4 3.6-1.1 7.2-2.1 3.5-1 7.2-1.7 3.6-0.8 7.3-1.4 3.7-0.6 7.4-1 3.7-0.4 7.4-0.7 3.7-0.2 7.4-0.2 3.7-0.1 7.5 0.1 3.7 0.1 7.4 0.5 3.7 0.3 7.4 0.8 3.7 0.5 7.3 1.2 3.7 0.7 7.3 1.6 3.6 0.9 7.2 1.9 3.5 1.1 7 2.3 3.5 1.2 7 2.7 3.4 1.4 6.8 2.9c44.9 21.1 74.7 57.3 91.2 103.3 31.7-16.4 60.5-27.2 96.6-18.5 29.5 7 54.3 26.9 69.9 52.6q1.7 2.6 3.1 5.3 1.5 2.7 2.9 5.5 1.3 2.8 2.5 5.6 1.2 2.8 2.3 5.7 1.1 2.9 2 5.8 0.9 3 1.7 5.9 0.7 3 1.4 6 0.6 3.1 1 6.1 0.5 3 0.8 6.1 0.3 3.1 0.5 6.1 0.2 3.1 0.2 6.2 0 3.1-0.2 6.1-0.1 3.1-0.4 6.2-0.3 3-0.8 6.1-0.4 3-1 6-0.6 3-1.4 6c-7.9 31-27.6 60.4-55.5 76.4-37.5 21.5-75.3 16.2-114.9 4.7-7.8 22-17 41.9-33.7 58.7q-2.7 2.7-5.6 5.2-2.9 2.6-5.9 4.9-3.1 2.3-6.3 4.5-3.2 2.1-6.5 4-3.3 1.9-6.8 3.6-3.4 1.7-6.9 3.2-3.6 1.4-7.2 2.6-3.7 1.2-7.4 2.2c-35 9.3-75.9 5.4-111.8 5.4l-140.3-0.3-251.6 0.2c-42.6 0-87 2.9-129.4-1-17.5-1.6-36.2-4.9-51.9-13.4-31.4-17.1-47.1-44.8-57.2-77.7-19.4 0.5-37.5 0.5-56.3-5.4-28-8.7-50.7-27.5-63.5-54-14.5-29.8-14.3-63.9-3.4-94.9 10.2-28.8 30.9-51.9 58.9-64.5 34.9-15.8 66.5-10 100.6 3.3q0.3-0.8 0.6-1.6c17.2-48.7 51.5-92.7 98.9-115.3 42.7-20.2 90.2-20.7 134.3-4.8 9.1-18.9 18.3-37.3 31.7-53.6 29.6-36 67.3-52.8 113-57.4z"/>
	<path class="s1" d="m-1987.1-743.2c43.2 0.8 81.2 10.8 118 34 61.3 38.6 96.2 97.1 111.6 166.5q17.7-4.3 36-4.5 3.6-0.1 7.1 0.1 3.5 0.1 7.1 0.4 3.5 0.3 7 0.8 3.5 0.5 7 1.1 3.5 0.7 7 1.5 3.4 0.8 6.8 1.8 3.4 1 6.8 2.2 3.3 1.2 6.6 2.5 3.3 1.3 6.5 2.8 3.2 1.5 6.4 3.2 3.1 1.6 6.2 3.4 3 1.8 6 3.8 2.9 1.9 5.8 4 2.9 2.1 5.6 4.4 2.8 2.2 5.4 4.6 2.6 2.4 5.2 4.9c31.5 31.7 42.2 72.2 42 115.9 26.6 4.3 49.6 11.9 69.6 31.2q2 1.9 3.9 3.9 1.9 1.9 3.6 4 1.8 2.1 3.5 4.3 1.7 2.1 3.2 4.4 1.6 2.2 3 4.5 1.5 2.4 2.8 4.8 1.3 2.3 2.5 4.8 1.2 2.5 2.3 5 1.1 2.5 2 5 1 2.6 1.8 5.2 0.8 2.6 1.5 5.3 0.7 2.6 1.3 5.3 0.5 2.7 1 5.4 0.4 2.7 0.7 5.4 0.2 2.7 0.4 5.4 0.1 2.8 0.2 5.5c0 30.6-14 60.8-35.7 82.1q-2.8 2.8-5.8 5.4-3 2.5-6.1 4.8-3.2 2.4-6.6 4.4-3.3 2.1-6.8 3.9-3.5 1.8-7.2 3.3-3.6 1.6-7.4 2.8-3.7 1.2-7.5 2.2-3.8 0.9-7.7 1.6c-21.3 3.7-43.7 2-65.2 2l-97 0.1-361.3 0.1h-240c-41.6 0.1-92.8 4.7-133.2-3.3-32.9-6.5-61-24.1-79.6-52.2-19.7-29.9-26.1-64.5-18.6-99.4q0.7-3.4 1.5-6.7 0.9-3.4 1.9-6.6 1-3.3 2.2-6.5 1.2-3.3 2.5-6.4 1.4-3.2 2.9-6.3 1.5-3.1 3.1-6.1 1.7-3 3.5-5.9 1.8-2.9 3.7-5.8 1.9-2.8 4-5.6 2.1-2.7 4.3-5.3 2.2-2.6 4.6-5.2 2.3-2.5 4.8-4.9 2.4-2.4 5-4.7 2.6-2.2 5.3-4.4 2.6-2.1 5.4-4.1 2.8-2 5.7-3.9c36.4-23.1 72.3-24.8 113.3-15.5-3.5-10.7-6.7-21.4-7.7-32.7-2.8-30.6 6.3-62.7 26.7-86 19-21.7 47.8-34.9 76.6-36.2 30.3-1.5 56 10.9 77.8 30.9 9.5-41.5 30.2-84.5 58.9-116.2 44.3-48.9 101-73.6 166.3-76.5z"/>
	<path class="s1" d="m513.9 1657c25.3-2.7 51.2-0.5 75.3 8.2 43.4 15.7 86.2 53.3 105.6 95.3 20.7-15.5 42.4-27.3 67.6-33.5 39.8-10 80.4-1.7 115.1 19.7 47.3 29 67.7 70 80 122.5 19.6-4.9 38.8-9.4 59.1-9.9 48.1-1.4 94.8 18.2 129.3 51.4 34 32.7 51.9 76.8 52.5 123.9 0.6 44.7-14.9 86.7-46.6 118.7q-3.8 3.8-7.8 7.4-4.1 3.6-8.4 6.9-4.3 3.3-8.8 6.4-4.5 3-9.2 5.7-4.6 2.7-9.5 5.1-4.9 2.4-9.9 4.4-5 2.1-10.2 3.8-5.1 1.7-10.3 3.1c-35.6 9.1-77.2 5.1-113.7 5h-147.7l-398.6-0.2c-53.7-0.1-122.3 3.6-174.3-0.5q-12-0.9-23.7-3.6-11.7-2.7-22.9-7.2-3.5-1.5-7-3.1-3.4-1.6-6.7-3.3-3.4-1.8-6.7-3.7-3.2-1.9-6.4-4-3.2-2.1-6.2-4.3-3.1-2.3-6-4.6-3-2.4-5.8-5-2.8-2.5-5.5-5.1-2.7-2.7-5.3-5.5-2.5-2.8-5-5.7-2.4-2.9-4.7-5.9-2.2-3.1-4.4-6.2-2.1-3.1-4.1-6.4-1.9-3.2-3.7-6.6-1.8-3.3-3.5-6.7-1.6-3.4-3.1-6.9c-18.3-42.9-17.7-93.1 0.1-136.1 17.5-42.2 48.9-73.5 91.3-90.6 47.5-19.1 90.5-13.2 136.6 6.2-2.8-57.7 5.6-112.5 42.6-159.1 33-41.5 78.5-63.9 130.6-70z"/>
	<path class="s2" d="m-1398.2 447q-0.6-2.5-1.3-4.9-0.7-2.5-1.6-4.9-0.8-2.4-1.8-4.8-1-2.3-2.1-4.6-1.1-2.4-2.3-4.6-1.2-2.3-2.5-4.5-1.3-2.2-2.7-4.3-1.4-2.1-2.9-4.2-1.6-2-3.2-4-1.6-2-3.3-3.8-1.8-1.9-3.6-3.7-1.8-1.8-3.7-3.5-1.9-1.8-3.9-3.4-2-1.6-4-3.1-2.1-1.5-4.2-2.9-2.2-1.4-4.4-2.7c-16.9-10-36.9-15.3-56.4-16.4-1.8-11.7-3.7-22.8-7-34.2-8.9-34.5-26.3-66.4-52.8-90.5-36.8-33.6-89.4-52.9-139.3-50.7-13-1.2-26.2 0-39.1 0.6-32.8-62.8-75.7-108.8-144.9-130.2-53.2-16.3-113.9-16.2-163.9 10.3-47.2 25.2-82.8 69.3-101.7 118.9-41.5-28.2-85.1-43-135.7-33.3-41.2 7.9-75.7 29-98.9 64.3-18.5 28.1-26.2 58.9-29.4 92.1-46.7 4.2-91.1 21.4-121.7 58.4-22.5 27.1-34.7 62-30.6 97.4 3.9 32.4 22.5 64.8 48.7 84.2 17.3 12.8 38.8 20.3 60.2 22.2 21.6 1.9 44.4 0.3 66.2 0.2l128.4-0.2 408.4-0.5 239.4 0.4c46 0.2 96.8 4.4 142.1-3.8 23.2-4.2 47.3-24 59.9-43 15.6-23.7 22.3-54.6 15.6-82.3z"/>
	<path class="s1" d="m653.6 860.1c56.9-6.7 117.6 10.1 164.5 42.5q4.7 3.2 9.3 6.7 4.6 3.4 9.1 7.1 4.4 3.7 8.7 7.6 4.2 3.9 8.2 8 4.1 4.2 7.9 8.5 3.9 4.3 7.5 8.8 3.6 4.5 7 9.1 3.4 4.7 6.5 9.5 3.2 4.9 6.1 9.8 2.9 5 5.5 10.2 2.7 5.1 5.1 10.3 2.4 5.3 4.6 10.6 2.1 5.4 4 10.8 1.8 5.5 3.4 11 1.6 5.6 2.9 11.2 1.4 5.6 2.4 11.3c10.3-0.5 20.6-1.1 30.9-1.1 37.4 0 75.6 17.4 101.5 44.2 31.1 32.3 39 69.9 38.1 113.4 17.8 8 33.8 15.9 48.2 29.4q2.3 2.1 4.4 4.3 2.2 2.3 4.3 4.6 2 2.3 3.9 4.7 2 2.4 3.8 4.9 1.8 2.5 3.5 5.1 1.7 2.6 3.2 5.3 1.6 2.7 3 5.4 1.4 2.8 2.7 5.6 1.3 2.8 2.4 5.7 1.1 2.9 2.1 5.8 1 2.9 1.9 5.9 0.8 3 1.5 6 0.7 3 1.3 6 0.5 3.1 0.9 6.1 0.4 3.1 0.7 6.2 0.2 3.1 0.3 6.2c0.9 33.3-10.1 64.5-33.5 88.6q-3 3.1-6.3 5.9-3.3 2.9-6.7 5.5-3.5 2.6-7.1 4.9-3.7 2.4-7.5 4.4-3.8 2.1-7.8 3.9-4 1.7-8.1 3.2-4 1.4-8.2 2.6-4.2 1.1-8.5 2c-39.8 7.9-118 3.5-162.7 3.5l-314.7 0.1-241.4 0.3c-37.7-0.1-76.1 1.1-113.7-1.2-41.3-2.5-77.3-14.1-105-46.1-23.8-27.5-37.7-64.9-34.6-101.4 2.9-34.7 21-69.2 47.6-91.6 28.9-24.3 60.6-29.2 96.8-26.2-7.5-33.7-6.9-65.6 9.9-96.6 16.1-29.7 45-50.7 77.2-60 41-11.7 72.3-0.1 108.3 19.5 10-36.2 23.3-67.5 46.4-97.4q3.6-4.7 7.4-9.1 3.8-4.5 7.8-8.8 3.9-4.3 8.2-8.3 4.2-4.1 8.6-8 4.4-3.8 8.9-7.5 4.6-3.6 9.4-7 4.8-3.4 9.7-6.6 4.9-3.1 10-6 5.1-2.9 10.3-5.6 5.2-2.6 10.6-5 5.3-2.4 10.8-4.5 5.4-2.1 11-4 5.5-1.8 11.2-3.4 5.6-1.6 11.3-2.8 5.7-1.3 11.5-2.3 5.8-1 11.6-1.7z"/>
	<g>
		<path class="s1" d="m-586.5 1649.2c41.7-5.2 87.6 7.1 124.8 25.6 67.5 33.5 108.7 86 132.6 156.4 22.9 2.6 46.1 5.8 66.4 17.4 38.3 21.8 53.5 60.6 65.2 100.8l2.1-0.1c35.6-0.5 67 10 92.8 35.2q2.2 2.2 4.4 4.5 2.1 2.3 4.1 4.7 2.1 2.4 4 4.9 1.9 2.6 3.6 5.2 1.8 2.6 3.4 5.2 1.7 2.7 3.2 5.5 1.5 2.8 2.8 5.6 1.4 2.8 2.6 5.7 1.2 2.9 2.3 5.9 1 3 2 6 0.9 3 1.6 6 0.8 3.1 1.4 6.2 0.6 3.1 1.1 6.2 0.4 3.1 0.7 6.2 0.3 3.2 0.4 6.3 0.2 3.2 0.2 6.3c-0.2 35-15.8 68.6-40.5 93.1-18 17.7-39.1 29.1-64 33.7-29.8 5.5-61.6 3.5-91.8 3.5l-131.3-0.2h-404.9l-240.9-0.3c-41 0-85.5 4.2-125.8-2.4-22.8-3.7-44.4-11.8-62.6-26.3-29.2-23.2-49.5-58.8-53.4-96q-0.3-3.2-0.5-6.3-0.2-3.2-0.2-6.3 0-3.2 0.2-6.3 0.1-3.2 0.4-6.3 0.3-3.2 0.7-6.3 0.5-3.1 1.1-6.2 0.6-3.1 1.4-6.1 0.7-3.1 1.6-6.1 0.9-3 2-6 1.1-3 2.3-5.9 1.2-2.9 2.5-5.8 1.3-2.8 2.8-5.6 1.5-2.8 3.1-5.5 1.6-2.7 3.4-5.3 1.7-2.7 3.6-5.2 1.9-2.5 3.9-5c22.1-26.6 54.1-42.5 88.3-45.6 6.2-31.2 14.9-59.5 36.1-83.9q2.2-2.6 4.6-5.1 2.4-2.5 4.8-4.8 2.5-2.3 5.1-4.6 2.6-2.2 5.3-4.3 2.7-2.1 5.5-4 2.8-2 5.7-3.8 2.9-1.8 5.8-3.5 3-1.6 6.1-3.1 3-1.6 6.1-2.9 3.2-1.4 6.4-2.6 3.1-1.2 6.4-2.3 3.2-1 6.5-1.9 3.3-0.9 6.6-1.6 3.4-0.7 6.7-1.3 3.4-0.5 6.8-0.9 3.4-0.4 6.8-0.6c32.3-2 60.9 9 84.9 30.2 14.5-16.4 30.6-28.7 51.1-36.4 31.4-11.7 68.2-11.4 98.6 2.7q10.6-19.9 23.2-38.6 12.6-18.7 27.1-36c43.8-53 93.1-75 160.7-81.7z"/>
		<path class="s1" d="m-597.1 1676.6q8.8-0.3 17.5 0.1 8.7 0.3 17.4 1.3 8.7 1 17.4 2.5 8.6 1.6 17 3.8 8.5 2.2 16.8 5 8.3 2.8 16.4 6.1 8.1 3.4 15.9 7.3 7.8 3.9 15.4 8.4c52.8 31.8 87.3 75.6 102.4 135.4-29.2-64.5-54.8-99.9-117.7-135.6-25.5-13.8-54.6-22.1-83.4-25.2-54-6-110.9 12.2-153.5 45.7-14.8 11.7-27.6 25.7-42.4 37.4l-1.8 1.4q7-12.8 16.3-24c37.5-44.7 89.5-65.2 146.3-69.6z"/>
	</g>
	<path class="s1" d="m-799.4-772.9c17.9-2.1 37-2.2 54.9 0.3 53.9 7.5 95.1 36.8 127.5 79.1 29.2-10.2 60.3-14 90.6-5.5 41.4 11.8 66 39.4 86 76l5-2.2c42.1-18.5 89.3-21.7 132.4-4.6 54.7 21.6 82.4 63.6 104.9 115.3 8.2 5 17.2 10 24.5 16.3 25.6 22.5 32.9 48.8 35.1 81.5 28 8.8 51 23.2 67.6 47.8 18.8 27.7 25 63.2 18.2 95.8-6.4 30.7-23.9 57.7-50.7 74.4-30.5 19-62.8 19.7-96.7 12.1q-8.1 12.3-18.2 22.9-2.8 2.8-5.7 5.5-2.9 2.7-5.9 5.2-3.1 2.6-6.2 5-3.2 2.3-6.5 4.6-3.2 2.2-6.6 4.3-3.4 2-6.8 3.9-3.5 1.9-7.1 3.7-3.5 1.7-7.2 3.3-3.6 1.5-7.3 2.9-3.7 1.4-7.5 2.6-3.8 1.2-7.6 2.2-3.8 1-7.7 1.8-3.9 0.8-7.8 1.5-3.9 0.6-7.8 1-4 0.5-7.9 0.7-4 0.3-7.9 0.4c-48.6 0.8-87.3-19.1-121.4-52.4-5.6 8.7-12.3 17.3-19.7 24.4-23.4 22.3-49.2 28.5-80.3 27.8-33.1-5.9-53.7-18.8-77.1-42.2-9.3 15.1-18.6 28.5-32.2 40-29.6 24.8-70.7 34.1-108.6 30.6-52.2-4.8-96.3-30.5-129.2-70.6-16.5 18.5-33.7 31.9-57.3 40.1-36.1 12.6-79.4 11.8-114-5.3-26-12.8-44.4-33.7-53.9-61.2-34.2-6.3-66.9-16.3-93.5-39.9-30.3-27-45.1-68.4-47.2-108.1-2.4-42.6 7.4-91.6 37.1-123.9 25-27.2 56.2-33.1 91.1-34.6q0.2-0.9 0.5-1.8c7-23.8 18.8-47.8 41.7-59.9 21.4-11.2 45.5-10 67.9-2.8 18.6-23.7 33.8-35.9 62.5-46.3q0.8-6.5 1.9-12.9 1.2-6.4 2.8-12.8 1.5-6.3 3.5-12.5 1.9-6.2 4.3-12.3 2.3-6.1 5.1-12 2.7-5.9 5.8-11.7 3.1-5.7 6.6-11.2 3.5-5.5 7.3-10.8c30.7-42.8 77.5-66.9 128.7-75.5z"/>
	<path class="s1" d="m514.4 0.8c16 0 31.5 0.9 47.1 4.4 50.7 11 90.8 41.4 118.6 84.6 6.6-4.5 13.3-8.8 20.5-12.2 24-11.3 52.2-11.3 76.7-1.6 34.1 13.5 53.4 39.4 67.2 72.4q6.5-3.5 13.2-6.5 6.8-2.9 13.8-5.2 7-2.4 14.2-4.1 7.2-1.6 14.5-2.7c47.7-6.5 93.6 7.9 131.5 36.8 41.2 31.5 37.5 43.9 62.6 81.2 6.8 10.2 17.5 19 26.2 27.7 28.3 28.6 41.8 57 47.3 96.8 8.4 1.1 16.5 2.4 24.6 4.9 26.6 8.3 47.4 25.8 60 50.5 14.8 29 16.9 61.6 6.6 92.4q-0.8 2.7-1.8 5.3-1.1 2.5-2.2 5.1-1.1 2.5-2.3 5-1.3 2.4-2.7 4.8-1.4 2.4-2.8 4.8-1.5 2.3-3.1 4.5-1.6 2.3-3.4 4.5-1.7 2.2-3.5 4.2-1.8 2.1-3.7 4.1-1.9 2-4 3.9-2 1.9-4.1 3.7-2.1 1.8-4.3 3.5-2.2 1.7-4.5 3.2-2.2 1.6-4.6 3.1-2.3 1.4-4.8 2.8-2.4 1.3-4.9 2.5c-32.6 16.2-63.3 10.8-96-0.1q-11.6 18.5-26.7 34.2c-29.2 29.8-68.3 45.7-109.8 45.6-50.5-0.1-90-23.4-124.5-58.4-2.5 6.3-5.1 12.5-8.3 18.5-15.8 29.5-39.2 43.9-70.4 53.5-41.8 5.6-71.7-2.3-107-25.4q-1.4 1.6-2.8 3.1c-33.6 35.2-75.9 49.8-124 50.7-61.3 1.1-106.4-24.6-149.6-66.1q-2.4 1.9-4.7 3.7c-35 26.9-82.6 35.4-125.5 29.2-50.6-7.3-89.2-34.7-119.1-75.2-30.5-8.4-59.6-20.1-83.3-41.7-31-28.4-48.8-69.6-50.3-111.4-1.6-43.2 14.8-87.8 44.6-119.2 29.2-30.8 63.4-42.4 105-43.5 8-23.6 20.4-45.8 42.9-58.5 23.1-13.1 45.8-10 70.2-3.6 15.6-26.5 29.5-38 58.6-47.9 12-40.6 26.3-73.9 54.8-105.9 37.1-41.7 82.6-62.5 138-66z"/>
</svg>