<svg width="57" height="56" viewBox="0 0 57 56" fill="none" xmlns="http://www.w3.org/2000/svg">
<path d="M44.4179 35.8489C44.3136 35.8484 44.2105 35.8269 44.1151 35.7859C44.0196 35.745 43.9338 35.6853 43.863 35.6107L39.6302 31.1768C39.4889 31.0378 39.4097 30.8502 39.4097 30.6546C39.4097 30.459 39.4889 30.2714 39.6302 30.1324C39.7679 30.0072 39.9498 29.9383 40.1382 29.94H42.2357C42.5891 29.934 42.9336 29.8311 43.2297 29.6431C43.5258 29.4552 43.7616 29.1898 43.91 28.8774H40.8907C40.7044 28.8571 40.5323 28.7707 40.4073 28.6346C40.2824 28.4986 40.2133 28.3224 40.2133 28.1399C40.2133 27.9573 40.2824 27.7812 40.4073 27.6451C40.5323 27.5091 40.7044 27.4227 40.8907 27.4024H43.957C43.8073 27.0917 43.571 26.8282 43.2749 26.6419C42.9789 26.4557 42.6351 26.3541 42.2828 26.3489H40.1852C39.9989 26.3286 39.8269 26.2422 39.7019 26.1062C39.5769 25.9701 39.5078 25.794 39.5078 25.6114C39.5078 25.4289 39.5769 25.2527 39.7019 25.1167C39.8269 24.9806 39.9989 24.8942 40.1852 24.874H46.7694C46.9557 24.8942 47.1278 24.9806 47.2528 25.1167C47.3777 25.2527 47.4468 25.4289 47.4468 25.6114C47.4468 25.794 47.3777 25.9701 47.2528 26.1062C47.1278 26.2422 46.9557 26.3286 46.7694 26.3489H45.0858C45.304 26.6698 45.4602 27.0268 45.5467 27.4024H46.7883C46.9745 27.4227 47.1466 27.5091 47.2716 27.6451C47.3965 27.7812 47.4656 27.9573 47.4656 28.1399C47.4656 28.3224 47.3965 28.4986 47.2716 28.6346C47.1466 28.7707 46.9745 28.8571 46.7883 28.8774H45.5561C45.3842 29.5979 44.9673 30.2407 44.3731 30.7013C43.7789 31.162 43.0422 31.4135 42.2828 31.415H41.9253L45.0199 34.658C45.1606 34.7954 45.2397 34.9815 45.2397 35.1756C45.2397 35.3697 45.1606 35.5558 45.0199 35.6932C44.9362 35.7585 44.8394 35.8061 44.7358 35.8329C44.6321 35.8597 44.5239 35.8652 44.4179 35.8489Z" fill="white"/>
<path d="M54.2355 48.343H39.5244C39.1061 48.3468 38.6942 48.444 38.3204 48.627C38.5095 48.2601 38.6092 47.8557 38.612 47.4452V45.613C38.612 44.9011 38.3217 44.2184 37.8048 43.715C37.288 43.2116 36.587 42.9288 35.8561 42.9288H21.145C20.7238 42.9341 20.3092 43.0311 19.9316 43.2128C20.1181 42.845 20.2178 42.4412 20.2232 42.031V40.2904C20.2232 39.5777 19.9331 38.894 19.4165 38.3891C18.9 37.8843 18.199 37.5995 17.4672 37.597H2.76551C2.03208 37.597 1.3287 37.8808 0.810088 38.3859C0.291478 38.891 0.000126191 39.5761 0.000126191 40.2904V42.0768C-0.00655706 42.755 0.252447 43.4103 0.724393 43.909C0.254074 44.4088 -0.00467294 45.0633 0.000126191 45.7412V47.5735C-0.00655706 48.2517 0.252447 48.9069 0.724393 49.4057C0.252447 49.9044 -0.00655706 50.5597 0.000126191 51.2379V53.0701C0.0026153 53.7828 0.295066 54.4656 0.813406 54.9687C1.33175 55.4718 2.03371 55.7543 2.76551 55.7543H17.4672C18.1608 55.7553 18.8305 55.5074 19.3484 55.0581C19.8495 55.5044 20.5035 55.7527 21.1826 55.7543H35.8561C36.5497 55.7553 37.2194 55.5074 37.7373 55.0581C38.2503 55.5152 38.9232 55.7642 39.6185 55.7543H54.2355C54.9664 55.7543 55.6674 55.4715 56.1843 54.9681C56.7011 54.4647 56.9915 53.782 56.9915 53.0701V51.2379C57.0214 50.8681 56.9723 50.4963 56.8472 50.1459C56.7222 49.7955 56.5239 49.4742 56.2649 49.2021C56.006 48.9301 55.692 48.7133 55.3427 48.5655C54.9934 48.4176 54.6164 48.3418 54.2355 48.343ZM21.145 44.761H22.0856V46.5932H23.9198V44.761H25.801V46.5932H27.6352V44.761H29.5164V46.5932H31.3976V44.761H33.2318V46.5932H35.113V44.761H36.0536C36.303 44.761 36.5423 44.8575 36.7187 45.0293C36.8951 45.2011 36.9942 45.4342 36.9942 45.6771V47.5093C36.9942 47.7523 36.8951 47.9853 36.7187 48.1571C36.5423 48.3289 36.303 48.4254 36.0536 48.4254H21.145C20.8955 48.4254 20.6563 48.3289 20.4799 48.1571C20.3035 47.9853 20.2044 47.7523 20.2044 47.5093V45.6771C20.2044 45.4342 20.3035 45.2011 20.4799 45.0293C20.6563 44.8575 20.8955 44.761 21.145 44.761ZM2.76551 48.343C2.51605 48.343 2.2768 48.2465 2.1004 48.0747C1.924 47.9029 1.8249 47.6699 1.8249 47.4269V45.5947C1.8249 45.3517 1.924 45.1187 2.1004 44.9469C2.2768 44.7751 2.51605 44.6786 2.76551 44.6786H3.65909V46.5108H5.5403V44.6786H7.35567V46.5108H9.23689V44.6786H11.0711V46.5108H12.9523V44.6786H14.7865V46.5108H16.5454V44.6786H17.486C17.7355 44.6786 17.9747 44.7751 18.1511 44.9469C18.3275 45.1187 18.4266 45.3517 18.4266 45.5947V47.4269C18.4266 47.6699 18.3275 47.9029 18.1511 48.0747C17.9747 48.2465 17.7355 48.343 17.486 48.343H2.76551ZM1.8249 40.2904C1.8249 40.0474 1.924 39.8144 2.1004 39.6426C2.2768 39.4708 2.51605 39.3743 2.76551 39.3743H3.65909V41.2065H5.5403V39.3743H7.35567V41.2065H9.23689V39.3743H11.0711V41.2065H12.9523V39.3743H14.7865V41.2065H16.5454V39.3743H17.486C17.7355 39.3743 17.9747 39.4708 18.1511 39.6426C18.3275 39.8144 18.4266 40.0474 18.4266 40.2904V42.0768C18.4266 42.3198 18.3275 42.5528 18.1511 42.7246C17.9747 42.8964 17.7355 42.9929 17.486 42.9929H2.76551C2.51605 42.9929 2.2768 42.8964 2.1004 42.7246C1.924 42.5528 1.8249 42.3198 1.8249 42.0768V40.2904ZM17.4672 53.7114H2.76551C2.51605 53.7114 2.2768 53.6149 2.1004 53.4431C1.924 53.2713 1.8249 53.0382 1.8249 52.7953V50.9631C1.8249 50.7201 1.924 50.4871 2.1004 50.3153C2.2768 50.1435 2.51605 50.047 2.76551 50.047H3.65909V51.8334H5.5403V50.1386H7.35567V51.925H9.23689V50.1386H11.0711V51.925H12.9523V50.1386H14.7865V51.925H16.5454V50.1386H17.486C17.7355 50.1386 17.9747 50.2351 18.1511 50.4069C18.3275 50.5787 18.4266 50.8117 18.4266 51.0547V52.8869C18.403 53.1168 18.2909 53.3296 18.113 53.4825C17.9351 53.6354 17.7044 53.7172 17.4672 53.7114ZM35.8561 53.7114H21.145C20.8955 53.7114 20.6563 53.6149 20.4799 53.4431C20.3035 53.2713 20.2044 53.0382 20.2044 52.7953V50.9631C20.2044 50.7201 20.3035 50.4871 20.4799 50.3153C20.6563 50.1435 20.8955 50.047 21.145 50.047H22.0856V51.8334H23.9198V50.1386H25.801V51.925H27.6352V50.1386H29.5164V51.925H31.3976V50.1386H33.2318V51.925H35.113V50.1386H36.0536C36.303 50.1386 36.5423 50.2351 36.7187 50.4069C36.8951 50.5787 36.9942 50.8117 36.9942 51.0547V52.8869C36.9838 53.0174 36.9449 53.1443 36.8799 53.2589C36.815 53.3735 36.7256 53.4732 36.6177 53.5514C36.5099 53.6295 36.3861 53.6842 36.2547 53.7118C36.1233 53.7394 35.9874 53.7393 35.8561 53.7114ZM55.1573 52.7953C55.1573 53.0382 55.0582 53.2713 54.8818 53.4431C54.7054 53.6149 54.4662 53.7114 54.2167 53.7114H39.5244C39.275 53.7114 39.0357 53.6149 38.8593 53.4431C38.6829 53.2713 38.5838 53.0382 38.5838 52.7953V50.9631C38.5838 50.7201 38.6829 50.4871 38.8593 50.3153C39.0357 50.1435 39.275 50.047 39.5244 50.047H40.465V51.8334H42.3462V50.1386H44.2275V51.925H46.1087V50.1386H47.9899V51.925H49.8711V50.1386H51.7523V51.925H53.5865V50.1386H54.5271C54.7766 50.1386 55.0158 50.2351 55.1922 50.4069C55.3686 50.5787 55.4677 50.8117 55.4677 51.0547L55.1573 52.7953Z" fill="white"/>
<path d="M56.9914 12.5324V2.6842H46.9269V4.51641H53.9062L44.9704 13.2103L39.402 9.57333L27.5786 22.0324V32.2287H14.7111V25.0647H19.3107C21.5027 25.0623 23.6042 24.2131 25.1542 22.7035C26.7042 21.1939 27.5761 19.1471 27.5786 17.0121V16.096H21.1448C19.9099 16.0959 18.6907 16.3658 17.5771 16.8859C16.4636 17.406 15.4842 18.1629 14.7111 19.1008V12.5324H19.3107C21.5027 12.5299 23.6042 11.6808 25.1542 10.1711C26.7042 8.6615 27.5761 6.6147 27.5786 4.47977V3.56366H21.1448C19.8716 3.56112 18.6149 3.84503 17.4728 4.39326C16.3308 4.94148 15.3341 5.7392 14.5606 6.72423C14.2383 4.85803 13.2523 3.16172 11.7751 1.93236C10.2979 0.702998 8.42371 0.018949 6.48078 0H0V0.916108C0.00249279 3.05263 0.875668 5.10081 2.4277 6.6107C3.97973 8.12059 6.08368 8.9687 8.27734 8.9687H12.8769V22.7103C12.1078 21.7765 11.1347 21.0214 10.0282 20.5C8.92178 19.9786 7.7099 19.7041 6.48078 19.6963H0V20.6124C0.00249279 22.7489 0.875668 24.7971 2.4277 26.307C3.97973 27.8169 6.08368 28.665 8.27734 28.665H12.8769V32.247H0V34.0792H34.2099C35.0565 35.6939 36.3447 37.0493 37.9323 37.9959C39.52 38.9425 41.3453 39.4435 43.2068 39.4435C45.0683 39.4435 46.8936 38.9425 48.4812 37.9959C50.0689 37.0493 51.3571 35.6939 52.2037 34.0792H56.9914V32.247H52.928C53.1816 31.3736 53.3114 30.4705 53.3136 29.5628C53.3176 27.542 52.6766 25.57 51.4794 23.9196V9.32598L55.1572 5.744V12.5324H56.9914ZM21.1448 17.9007H25.6786C25.4654 19.3992 24.7037 20.7722 23.5336 21.7671C22.3635 22.7619 20.8639 23.3116 19.3107 23.3149H14.7769C14.9901 21.8165 15.7518 20.4435 16.9219 19.4486C18.092 18.4538 19.5916 17.9041 21.1448 17.9007ZM21.1448 5.36839H25.6786C25.4553 6.85937 24.6895 8.2226 23.5206 9.20967C22.3518 10.1967 20.8577 10.7419 19.3107 10.7459H14.7769C14.9983 9.25418 15.7636 7.88986 16.9329 6.90244C18.1022 5.91503 19.5973 5.37049 21.1448 5.36839ZM8.27734 7.20061C6.72359 7.19917 5.22286 6.65015 4.05236 5.65496C2.88186 4.65977 2.12069 3.28564 1.90943 1.78641H6.48078C8.02944 1.78821 9.52578 2.33243 10.6966 3.3197C11.8674 4.30697 12.6346 5.67143 12.8581 7.16396L8.27734 7.20061ZM8.27734 26.8969C6.72414 26.8936 5.22446 26.3439 4.05438 25.349C2.88429 24.3542 2.12257 22.9812 1.90943 21.4827H6.48078C8.02944 21.4845 9.52578 22.0287 10.6966 23.016C11.8674 24.0033 12.6346 25.3678 12.8581 26.8603L8.27734 26.8969ZM43.1645 19.6963C42.2318 19.6983 41.3041 19.8278 40.4085 20.0811V12.4133L44.1051 14.8043V19.7421C43.8041 19.7421 43.4937 19.6963 43.1645 19.6963ZM38.5743 20.7865C37.1049 21.5156 35.8419 22.5852 34.8965 23.9013V16.9022L38.5743 13.0271V20.7865ZM29.4222 32.2287V22.7286L33.0906 18.8535V29.5445C33.0958 30.4526 33.2288 31.3557 33.4856 32.2287H29.4222ZM43.1645 37.5971C41.5269 37.5971 39.9262 37.124 38.5648 36.2378C37.2034 35.3515 36.1425 34.0919 35.5163 32.6183C34.8901 31.1447 34.7267 29.5233 35.0469 27.9592C35.367 26.3951 36.1563 24.9586 37.3148 23.8316C38.4734 22.7045 39.9491 21.9374 41.5554 21.6274C43.1617 21.3173 44.8263 21.4783 46.3386 22.0899C47.8509 22.7014 49.143 23.7362 50.0514 25.0631C50.9598 26.3901 51.4437 27.9496 51.4418 29.5445C51.4393 31.681 50.5661 33.7292 49.0141 35.2391C47.4621 36.749 45.3581 37.5971 43.1645 37.5971ZM49.5982 21.9499C48.5168 21.1014 47.2684 20.4779 45.9298 20.1177V14.6944L49.5982 11.1124V21.9499Z" fill="white"/>
</svg>
