<svg width="60" height="60" viewBox="0 0 60 60" fill="none" xmlns="http://www.w3.org/2000/svg">
<path d="M58.3032 43.5094V34.6313L54.6563 34.0219C54.5157 33.6469 54.3657 33.2813 54.197 32.9157L56.3438 29.8969L50.0626 23.6157L47.0532 25.7719C46.6876 25.6031 46.3126 25.4438 45.947 25.3125L45.4782 22.5V9.37503L37.6126 1.5094H16.1626V8.83127H4.25635V28.9875H3.31885C2.82157 28.9875 2.34465 29.1851 1.99302 29.5367C1.64139 29.8883 1.44385 30.3652 1.44385 30.8625V56.475C1.45608 56.9641 1.65901 57.4291 2.00932 57.7707C2.35964 58.1122 2.82958 58.3033 3.31885 58.3032H36.3189C36.8 58.2913 37.2581 58.0948 37.5984 57.7546C37.9387 57.4143 38.1351 56.9561 38.147 56.475H45.3376L45.9376 52.8282C46.3032 52.6875 46.6782 52.5375 47.0438 52.3594L50.0532 54.5157L56.3345 48.2344L54.1876 45.225C54.3563 44.85 54.5064 44.4844 54.647 44.1188L58.3032 43.5094ZM38.147 4.63127L42.347 8.83127H38.147V4.63127ZM17.9907 3.33752H36.3189V10.6688H43.6501V21.6563H36.4595L35.8501 25.3125C35.4845 25.4438 35.1095 25.6031 34.7439 25.7719L33.572 24.9282V18H41.8126V16.125H33.572V14.3344H41.8126V12.4594H33.572V8.83127H17.9907V3.33752ZM6.08447 10.6688H31.7345V23.625L30.9845 24.375C30.729 24.1007 30.42 23.8818 30.0765 23.7319C29.733 23.5819 29.3624 23.504 28.9876 23.5031H10.6688C9.93947 23.5031 9.23982 23.7922 8.72319 24.3071C8.20656 24.822 7.91508 25.5206 7.9126 26.25V28.9969H6.08447V10.6688ZM9.7501 28.9875V26.25C9.7501 26.0014 9.84887 25.7629 10.0247 25.5871C10.2005 25.4113 10.439 25.3125 10.6876 25.3125H28.9876C29.2362 25.3125 29.4747 25.4113 29.6505 25.5871C29.8263 25.7629 29.9251 26.0014 29.9251 26.25V28.9969L9.7501 28.9875ZM36.3189 30.8625V34.9219L24.3751 42.0282V41.8125C24.3751 41.3152 24.1776 40.8383 23.8259 40.4867C23.4743 40.1351 22.9974 39.9375 22.5001 39.9375H17.0813C16.5841 39.9375 16.1072 40.1351 15.7555 40.4867C15.4039 40.8383 15.2063 41.3152 15.2063 41.8125V42.0282L3.3376 34.8844V30.825L36.3189 30.8625ZM38.147 34.3594C38.9794 33.869 39.9277 33.6101 40.8938 33.6094C41.635 33.5788 42.3747 33.6983 43.0685 33.9609C43.7623 34.2234 44.3959 34.6235 44.9311 35.1371C45.4663 35.6507 45.8922 36.2672 46.1832 36.9495C46.4741 37.6319 46.6241 38.366 46.6241 39.1078C46.6241 39.8496 46.4741 40.5838 46.1832 41.2661C45.8922 41.9485 45.4663 42.565 44.9311 43.0786C44.3959 43.5922 43.7623 43.9923 43.0685 44.2548C42.3747 44.5173 41.635 44.6369 40.8938 44.6063C39.9269 44.6023 38.9786 44.3402 38.147 43.8469V34.3594ZM38.147 45.8813C39.0193 46.2379 39.9515 46.4256 40.8938 46.4344C42.8382 46.4344 44.7029 45.662 46.0778 44.2871C47.4527 42.9123 48.2251 41.0475 48.2251 39.1031C48.2251 37.1588 47.4527 35.294 46.0778 33.9192C44.7029 32.5443 42.8382 31.7719 40.8938 31.7719C39.9515 31.7807 39.0193 31.9684 38.147 32.325V30.825C38.1442 30.6636 38.1222 30.5031 38.0813 30.3469C39.4521 29.9076 40.9071 29.7976 42.3283 30.0257C43.7495 30.2539 45.097 30.8138 46.2614 31.66C47.4257 32.5062 48.3743 33.615 49.0301 34.8963C49.6859 36.1776 50.0305 37.5955 50.0359 39.0349C50.0413 40.4743 49.7074 41.8947 49.0612 43.181C48.4151 44.4672 47.4749 45.583 46.3169 46.438C45.1589 47.293 43.8157 47.863 42.3962 48.1018C40.9768 48.3406 39.521 48.2415 38.147 47.8125V45.8813ZM22.5751 45.5157H17.0813V41.8125H22.5751V45.5157ZM3.3376 56.475V54.6H30.8157V52.725H3.3376V37.0219L15.2438 44.1657V45.4781C15.2438 45.9754 15.4414 46.4523 15.793 46.804C16.1447 47.1556 16.6216 47.3531 17.1188 47.3531H22.6126C23.1099 47.3531 23.5868 47.1556 23.9384 46.804C24.2901 46.4523 24.4876 45.9754 24.4876 45.4781V44.1657L36.4032 37.0219V52.8094H32.6532V54.6844H36.3189V56.5594L3.3376 56.475ZM53.9626 48.0375L49.8657 52.125L47.222 50.25L46.7251 50.5032C46.122 50.8125 45.495 51.0727 44.8501 51.2813L44.3251 51.4594L43.7907 54.6563H38.1657V49.6875C39.0633 49.9182 39.9858 50.0379 40.9126 50.0438C42.5505 50.0478 44.1687 49.686 45.6489 48.9846C47.1291 48.2832 48.4339 47.26 49.468 45.9897C50.5021 44.7195 51.2394 43.2343 51.626 41.6426C52.0127 40.0509 52.0388 38.393 51.7027 36.7899C51.3665 35.1868 50.6764 33.6791 49.6829 32.3768C48.6895 31.0746 47.4176 30.0107 45.9603 29.2629C44.503 28.5152 42.8971 28.1024 41.2598 28.0547C39.6225 28.0071 37.9953 28.3258 36.497 28.9875H36.3376H31.7345V26.25L31.9314 26.0625L34.5751 27.9375L35.072 27.6844C35.6751 27.3751 36.3021 27.1149 36.947 26.9063L37.472 26.7375L38.0064 23.5313H43.7907L44.3251 26.7375L44.8501 26.9063C45.495 27.1149 46.122 27.3751 46.7251 27.6844L47.222 27.9375L49.8657 26.0625L53.9532 30.1407L52.0782 32.7938L52.3313 33.2906C52.6413 33.8946 52.9046 34.5215 53.1189 35.1656L53.2876 35.6907L56.4938 36.225V42L53.2876 42.5344L53.1189 43.0688C52.9029 43.7123 52.6396 44.339 52.3313 44.9438L52.0782 45.4313L53.9626 48.0375Z" fill="white"/>
<path d="M39.9844 24.375H41.8594V26.25H39.9844V24.375Z" fill="white"/>
<path d="M49.3218 29.3532L50.6249 28.05L51.9187 29.3532L50.6249 30.6469L49.3218 29.3532Z" fill="white"/>
<path d="M53.728 38.1469H55.5561V40.0219H53.728V38.1469Z" fill="white"/>
<path d="M49.3218 48.75L50.6249 47.4844L51.9093 48.75L50.6249 50.0812L49.3218 48.75Z" fill="white"/>
<path d="M39.9844 51.8906H41.8594V53.7656H39.9844V51.8906Z" fill="white"/>
<path d="M7.9126 12.4968H29.9063V14.3718H7.9126V12.4968Z" fill="white"/>
<path d="M7.9126 16.1625H9.7876V18.0375H7.9126V16.1625Z" fill="white"/>
<path d="M11.5781 16.1625H13.4531V18.0375H11.5781V16.1625Z" fill="white"/>
<path d="M15.2437 16.1625H29.9062V18.0375H15.2437V16.1625Z" fill="white"/>
<path d="M7.9126 19.8281H29.9063V21.7031H7.9126V19.8281Z" fill="white"/>
<path d="M19.8281 5.16565H21.7031V7.04065H19.8281V5.16565Z" fill="white"/>
<path d="M23.4937 5.16565H30.8155V7.04065H23.4937V5.16565Z" fill="white"/>
<path d="M32.6533 5.16565H34.5283V7.04065H32.6533V5.16565Z" fill="white"/>
</svg>
