<svg width="64" height="64" viewBox="0 0 64 64" fill="none" xmlns="http://www.w3.org/2000/svg">
<path fill-rule="evenodd" clip-rule="evenodd" d="M43.6283 10.9254C43.0531 10.35 42.0639 10.7589 42.0639 11.5734C42.0639 12.3879 43.0529 12.7968 43.6283 12.2214C43.9861 11.8636 43.9861 11.283 43.6283 10.9254ZM42.9803 9.06013C45.2117 9.06013 46.3372 11.7709 44.7574 13.3506C43.1778 14.9304 40.4669 13.8049 40.4669 11.5735C40.4669 10.1856 41.5924 9.06013 42.9803 9.06013ZM49.8286 17.1289C49.2532 16.5535 48.2642 16.9625 48.2642 17.7769C48.2642 18.5913 49.2531 19.0004 49.8286 18.4249C50.1863 18.0671 50.1863 17.4865 49.8286 17.1289ZM49.1806 15.2636C51.4118 15.2636 52.5376 17.9743 50.9577 19.5541C49.3778 21.134 46.6672 20.0083 46.6672 17.777C46.6672 16.3891 47.7927 15.2636 49.1806 15.2636ZM23.1516 40.2268C20.2473 37.3226 15.5383 37.3225 12.6341 40.2268C9.72994 43.1309 9.72994 47.84 12.6341 50.7443C15.5382 53.6484 20.2473 53.6484 23.1516 50.7443C26.0558 47.84 26.0557 43.131 23.1516 40.2268ZM17.8928 36.4516C12.9038 36.4516 8.85894 40.4964 8.85894 45.4855C8.85894 50.4746 12.9037 54.5194 17.8928 54.5194C22.8819 54.5194 26.9267 50.4746 26.9267 45.4855C26.9267 40.4964 22.8819 36.4516 17.8928 36.4516ZM44.0437 19.6979C43.8249 20.0785 43.3389 20.2099 42.9583 19.991C42.5777 19.7721 42.4463 19.2863 42.6652 18.9056L48.1172 9.4625C48.3359 9.08188 48.8219 8.9505 49.2027 9.16938C49.5833 9.38813 49.7147 9.87413 49.4958 10.2548L44.0437 19.6979ZM53.0173 7.73838C56.8483 11.5694 56.8483 17.781 53.0173 21.612C49.1863 25.443 42.9746 25.443 39.1437 21.612C35.3127 17.781 35.3127 11.5694 39.1437 7.73838C42.9747 3.90738 49.1863 3.90738 53.0173 7.73838ZM46.0804 3.26813C52.3802 3.26813 57.4874 8.37538 57.4874 14.6751C57.4874 20.9749 52.3802 26.0821 46.0804 26.0821C39.7807 26.0821 34.6734 20.9749 34.6734 14.6751C34.6734 8.37538 39.7807 3.26813 46.0804 3.26813ZM24.8831 29.8058H11.7317C10.9851 29.8058 10.5808 30.7196 11.1276 31.2663C11.2832 31.4219 11.4971 31.5184 11.7317 31.5184H24.8831C25.6297 31.5184 26.0338 30.6044 25.4873 30.0579C25.3318 29.9023 25.1178 29.8058 24.8831 29.8058ZM12.8938 28.2088H23.8971C25.2924 26.1605 26.5457 23.4126 26.8821 21.0266C26.3667 20.7625 25.8546 20.415 25.3424 20.0674C24.5116 19.5035 23.6807 18.9396 23.0934 18.9245C21.8869 18.8935 20.5961 21.2831 18.5916 21.2318C16.6497 21.1819 14.5402 18.7048 13.2387 18.6714C12.2551 18.6461 11.1191 20.3125 9.70619 20.8174C9.94894 23.2948 11.4003 26.1551 12.8938 28.2088ZM43.3449 47.4284L46.4431 44.3301C46.7548 44.0184 47.2604 44.0184 47.5722 44.3301C47.8839 44.6419 47.8839 45.1475 47.5722 45.4593L44.4734 48.558C44.6807 48.9451 44.7983 49.3894 44.7983 49.8579H44.8014C44.8014 52.3058 41.8278 53.5403 40.0949 51.8074C38.3624 50.0748 39.6044 47.1009 42.0444 47.1009C42.5141 47.1009 42.9569 47.2194 43.3449 47.4284ZM42.8969 49.0683C42.6534 48.8499 42.4459 48.698 42.0443 48.698C41.4139 48.698 40.8846 49.2056 40.8846 49.8365C40.8996 50.9486 42.1659 51.3773 42.8648 50.6784C43.0747 50.4685 43.2046 50.1784 43.2046 49.858H43.2076C43.2067 49.553 43.0913 49.2783 42.8969 49.0683ZM32.2206 34.4358C31.3339 34.9988 30.4992 35.6355 29.7251 36.3375C31.0233 38.3621 32.1373 40.5671 32.9711 42.742C33.7141 41.7965 34.6026 40.9695 35.6032 40.2946L32.2206 34.4358ZM41.2458 31.605V38.3526C39.7266 38.4571 38.2863 38.8574 36.9819 39.4966L33.6012 33.641C35.9411 32.4263 38.5332 31.7209 41.2458 31.605ZM50.4888 33.6418C48.1836 32.445 45.5918 31.7229 42.8428 31.6053V38.3525C44.3652 38.4566 45.8066 38.8561 47.1098 39.4943L50.4888 33.6418ZM57.4866 40.0226L51.6107 43.415C50.7791 42.1826 49.7184 41.1221 48.4859 40.2906L51.8668 34.4349C54.1218 35.8664 56.0421 37.7764 57.4866 40.0226ZM60.3696 49.0596C60.2411 46.3036 59.5038 43.7063 58.2892 41.3989L52.4087 44.794C53.0464 46.0969 53.4457 47.5378 53.5498 49.0596H60.3696ZM28.8251 35.0054C36.6847 28.0379 48.6347 28.3536 56.1148 35.8054C57.3207 37.0066 58.4226 38.4223 59.2816 39.9048C59.2877 39.9153 59.2933 39.9259 59.2989 39.9365C60.9662 42.8096 61.9366 46.1379 61.9791 49.6899C61.9907 49.7441 61.9968 49.8004 61.9968 49.858C61.9968 50.299 61.6393 50.6565 61.1983 50.6565H52.7787C52.3377 50.6565 51.9802 50.299 51.9802 49.858C51.9802 44.3704 47.5318 39.922 42.0443 39.922C38.5906 39.922 35.4318 41.6888 33.6143 44.5926C34.8066 48.4305 35.0206 52.0348 33.7322 54.2661C28.7476 62.8993 7.98982 62.8744 3.01982 54.2661C1.47694 51.5939 1.80719 47.7508 3.22269 43.8135C4.67407 39.7763 7.27519 35.5976 10.1357 32.5226C8.64894 31.2449 9.19319 28.8608 11.0313 28.3108C9.49107 25.9749 8.09407 22.8716 8.08082 20.1845C8.07919 19.7556 8.41719 19.4049 8.84194 19.3869C10.0324 19.3318 11.3048 17.03 13.2758 17.0805C15.2176 17.1304 17.3271 19.6075 18.6287 19.6409C19.8351 19.6719 21.1263 17.2823 23.1307 17.3338C24.8648 17.3783 26.6009 19.2759 28.0097 19.7883C28.3541 19.9131 28.5598 20.2509 28.5323 20.5991H28.5337C28.3343 23.1335 27.1183 26.0721 25.7041 28.3505C27.3496 28.9384 27.8897 31.0298 26.6777 32.3316C27.4256 33.1504 28.1452 34.0503 28.8251 35.0054ZM28.0572 36.6921C28.0398 36.669 28.0238 36.6451 28.0093 36.6206C27.1436 35.3325 26.2014 34.1354 25.2118 33.0935C25.1043 33.108 24.9946 33.1155 24.8832 33.1155H11.7717C8.86419 36.0784 6.17944 40.2906 4.72007 44.3503C3.45269 47.8758 3.11557 51.2455 4.39869 53.4679C5.14244 54.756 6.33007 55.8281 7.80719 56.681C13.4726 59.9523 23.2734 59.959 28.9408 56.687C30.4188 55.8336 31.6079 54.7599 32.3538 53.468C33.4381 51.59 33.1519 48.3151 31.9983 44.7628L31.7881 44.1391C30.9043 41.6136 29.6047 39.0081 28.0572 36.6921Z" fill="#DDCDC0"/>
<path d="M18.7273 49.433C18.6496 49.4325 18.5729 49.416 18.5019 49.3846C18.4308 49.3531 18.367 49.3073 18.3143 49.25L15.1642 45.843C15.059 45.7362 15 45.592 15 45.4417C15 45.2915 15.059 45.1473 15.1642 45.0405C15.2666 44.9443 15.402 44.8913 15.5422 44.8927H17.1032C17.3662 44.888 17.6226 44.809 17.843 44.6645C18.0634 44.5201 18.2388 44.3162 18.3493 44.0761H16.1022C15.9636 44.0606 15.8355 43.9942 15.7425 43.8896C15.6495 43.7851 15.5981 43.6497 15.5981 43.5095C15.5981 43.3692 15.6495 43.2339 15.7425 43.1293C15.8355 43.0248 15.9636 42.9584 16.1022 42.9428H18.3843C18.2728 42.7041 18.0969 42.5016 17.8766 42.3585C17.6563 42.2154 17.4005 42.1373 17.1382 42.1333H15.5772C15.4385 42.1178 15.3105 42.0514 15.2175 41.9468C15.1245 41.8423 15.0731 41.7069 15.0731 41.5667C15.0731 41.4264 15.1245 41.291 15.2175 41.1865C15.3105 41.082 15.4385 41.0156 15.5772 41H20.4773C20.616 41.0156 20.744 41.082 20.837 41.1865C20.93 41.291 20.9814 41.4264 20.9814 41.5667C20.9814 41.7069 20.93 41.8423 20.837 41.9468C20.744 42.0514 20.616 42.1178 20.4773 42.1333H19.2243C19.3867 42.3799 19.5029 42.6542 19.5673 42.9428H20.4913C20.63 42.9584 20.758 43.0248 20.851 43.1293C20.944 43.2339 20.9954 43.3692 20.9954 43.5095C20.9954 43.6497 20.944 43.7851 20.851 43.8896C20.758 43.9942 20.63 44.0606 20.4913 44.0761H19.5743C19.4464 44.6298 19.1362 45.1237 18.6939 45.4776C18.2517 45.8316 17.7034 46.0249 17.1382 46.026H16.8722L19.1753 48.5179C19.28 48.6234 19.3388 48.7665 19.3388 48.9156C19.3388 49.0647 19.28 49.2077 19.1753 49.3133C19.113 49.3635 19.041 49.4 18.9638 49.4206C18.8867 49.4412 18.8061 49.4454 18.7273 49.433Z" fill="#DDCDC0"/>
</svg>
