<svg width="64" height="64" viewBox="0 0 64 64" fill="none" xmlns="http://www.w3.org/2000/svg">
<path d="M14.4478 16.1797C14.9729 16.1797 15.4981 15.7595 15.4981 15.1293V7.1467C15.4981 5.46615 16.8636 4.10069 18.5441 4.10069H24.1109C24.6361 4.10069 25.1613 3.68056 25.1613 3.05035C25.1613 2.42014 24.7412 2 24.1109 2H18.5441C15.8132 2 13.5024 4.20573 13.5024 7.04167V15.1293C13.5024 15.7595 13.9226 16.1797 14.4478 16.1797Z" fill="#DDCDC0"/>
<path d="M34.929 46.3246C34.929 45.7994 34.5088 45.2743 33.8786 45.2743H19.4889V43.2786C19.4889 42.7534 19.0687 42.2283 18.4385 42.2283C17.9134 42.2283 17.3882 42.6484 17.3882 43.2786V46.3246C17.3882 46.8498 17.8083 47.375 18.4385 47.375H33.8786C34.5088 47.375 34.929 46.9548 34.929 46.3246Z" fill="#DDCDC0"/>
<path d="M54.4659 31.6198L47.6386 24.7925V7.14671C47.6386 4.41581 45.4329 2.10504 42.5969 2.10504H29.0475C28.5223 2.10504 27.9971 2.52518 27.9971 3.15539C27.9971 3.7856 28.4173 4.20574 29.0475 4.20574H42.5969C44.2775 4.20574 45.643 5.57119 45.643 7.25174V35.401C45.643 35.9262 46.0631 36.4514 46.6933 36.4514C47.2185 36.4514 47.7436 36.0313 47.7436 35.401V27.7335L53.1004 33.0903C54.781 34.7708 55.7263 37.0816 55.7263 39.4974V60.5043H35.5596V52.5217C35.5596 49.6858 37.8704 47.375 40.7063 47.375C41.2315 47.375 41.7567 46.9549 41.7567 46.3247C41.7567 46.0095 41.6516 45.7995 41.4416 45.5894L32.9338 37.0816C31.5683 35.7161 31.5683 33.5104 32.9338 32.145C34.2992 30.7795 36.5049 30.7795 37.8704 32.145L49.3192 43.5938C49.7393 44.0139 50.3695 44.0139 50.7897 43.5938C51.2098 43.1736 51.2098 42.5434 50.7897 42.2283L43.6473 34.9809V7.14671C43.6473 6.62153 43.2272 6.09636 42.5969 6.09636H37.5553C37.0301 6.09636 36.5049 6.5165 36.5049 7.14671C36.5049 7.67188 36.0848 8.19705 35.4546 8.19705H25.3713C24.8461 8.19705 24.3209 7.77692 24.3209 7.14671C24.3209 6.62153 23.9008 6.09636 23.2706 6.09636H18.2289C17.7037 6.09636 17.1785 6.5165 17.1785 7.14671V17.23H5.41466C3.7341 17.23 2.36865 18.5955 2.36865 20.276V38.342C2.36865 40.0226 3.7341 41.388 5.41466 41.388H13.5023V50.421C13.5023 53.1519 15.7081 55.4627 18.544 55.4627H33.669V61.4497C33.669 61.9748 34.0891 62.5 34.7193 62.5H56.8817C57.4068 62.5 57.932 62.0799 57.932 61.4497V39.4974C57.7219 36.5564 56.5666 33.7205 54.4659 31.6198ZM5.41466 19.2257H37.5553V21.2214H4.46935V20.171C4.46935 19.6458 4.88949 19.2257 5.41466 19.2257ZM30.518 53.362H18.544C16.8634 53.362 15.498 51.9965 15.498 50.316V41.283H30.623C31.1482 41.283 31.6733 40.8628 31.6733 40.2326C31.6733 39.7075 31.2532 39.1823 30.623 39.1823H5.41466C4.88949 39.1823 4.36431 38.7622 4.36431 38.1319V29.099H31.5683C32.0935 29.099 32.6186 28.6788 32.6186 28.0486C32.6186 27.5234 32.1985 26.9983 31.5683 26.9983H4.46935V23.0069H37.6603V28.0486C37.6603 28.5738 38.0805 29.099 38.7107 29.099C39.2358 29.099 39.761 28.6788 39.761 28.0486V15.2344C39.761 14.7092 39.3409 14.184 38.7107 14.184C38.1855 14.184 37.6603 14.6042 37.6603 15.2344V17.23H19.4893V8.19705H22.6404C23.0605 9.35244 24.2159 10.1927 25.4763 10.1927H35.5596C36.82 10.1927 37.9754 9.35244 38.3956 8.19705H41.5466V33.0903L39.4459 30.7795C37.2402 28.5738 33.774 28.5738 31.6733 30.7795C29.5726 32.9852 29.4676 36.4514 31.6733 38.5521L38.7107 45.5894C35.6647 46.5347 33.669 49.2656 33.669 52.4167V53.2569H30.518V53.362Z" fill="#DDCDC0"/>
<path d="M12.4519 31.3047H7.41021C6.88504 31.3047 6.35986 31.7248 6.35986 32.355V36.3464C6.35986 36.8715 6.78 37.3967 7.41021 37.3967H12.4519C12.9771 37.3967 13.5022 36.9766 13.5022 36.3464V32.355C13.5022 31.7248 12.9771 31.3047 12.4519 31.3047ZM11.5066 35.296H8.46056V33.3003H11.5066V35.296Z" fill="#DDCDC0"/>
<path d="M33.5637 50.421C33.5637 48.7404 32.1982 47.375 30.5177 47.375C28.8371 47.375 27.4717 48.7404 27.4717 50.421C27.4717 52.1015 28.8371 53.467 30.5177 53.467C32.1982 53.362 33.5637 51.9965 33.5637 50.421ZM30.5177 51.3663C29.9925 51.3663 29.4673 50.9462 29.4673 50.3159C29.4673 49.7908 29.8875 49.2656 30.5177 49.2656C31.0429 49.2656 31.568 49.6857 31.568 50.3159C31.568 50.9462 31.1479 51.3663 30.5177 51.3663Z" fill="#DDCDC0"/>
</svg>
