<svg width="64" height="64" viewBox="0 0 64 64" fill="none" xmlns="http://www.w3.org/2000/svg">
<path d="M56.6101 4H8.37005C7.89251 4.00131 7.41992 4.09683 6.97935 4.28109C6.53879 4.46536 6.13891 4.73474 5.80263 5.0738C5.46635 5.41287 5.20028 5.81496 5.01966 6.25703C4.83904 6.6991 4.74742 7.17246 4.75006 7.65V57.06C4.75005 58.021 5.13112 58.9428 5.80972 59.6233C6.48832 60.3037 7.40905 60.6874 8.37005 60.69H56.6101C57.5693 60.6874 58.4886 60.3051 59.1669 59.6268C59.8452 58.9485 60.2274 58.0293 60.2301 57.07V7.65C60.2327 7.17246 60.1411 6.6991 59.9604 6.25703C59.7798 5.81496 59.5138 5.41287 59.1775 5.0738C58.8412 4.73474 58.4413 4.46536 58.0008 4.28109C57.5602 4.09683 57.0876 4.00131 56.6101 4ZM8.37005 5.75H56.6101C57.1166 5.75 57.6024 5.95123 57.9606 6.30943C58.3188 6.66762 58.5201 7.15344 58.5201 7.66V13.84H6.52006V7.65C6.52006 7.14609 6.72023 6.66282 7.07655 6.3065C7.43287 5.95018 7.91614 5.75 8.42006 5.75H8.37005ZM56.6101 59H8.37005C7.8643 58.9974 7.38001 58.7953 7.02238 58.4377C6.66476 58.08 6.46268 57.5958 6.46006 57.09V15.56H58.5101V57.07C58.5127 57.3217 58.4656 57.5714 58.3714 57.8048C58.2772 58.0382 58.1378 58.2506 57.9613 58.43C57.7847 58.6093 57.5744 58.752 57.3425 58.8498C57.1107 58.9477 56.8617 58.9987 56.6101 59Z" fill="white"/>
<path d="M50.84 10.6501H52.91C53.1381 10.6501 53.3568 10.5594 53.5181 10.3982C53.6794 10.2369 53.77 10.0181 53.77 9.79005C53.77 9.56197 53.6794 9.34322 53.5181 9.18194C53.3568 9.02066 53.1381 8.93005 52.91 8.93005H50.84C50.6119 8.93005 50.3932 9.02066 50.2319 9.18194C50.0706 9.34322 49.98 9.56197 49.98 9.79005C49.98 10.0181 50.0706 10.2369 50.2319 10.3982C50.3932 10.5594 50.6119 10.6501 50.84 10.6501Z" fill="white"/>
<path d="M45.3698 10.6501H47.4398C47.6679 10.6501 47.8866 10.5594 48.0479 10.3982C48.2092 10.2369 48.2998 10.0181 48.2998 9.79005C48.2998 9.56197 48.2092 9.34322 48.0479 9.18194C47.8866 9.02066 47.6679 8.93005 47.4398 8.93005H45.3698C45.1417 8.93005 44.9229 9.02066 44.7617 9.18194C44.6004 9.34322 44.5098 9.56197 44.5098 9.79005C44.5098 10.0181 44.6004 10.2369 44.7617 10.3982C44.9229 10.5594 45.1417 10.6501 45.3698 10.6501Z" fill="white"/>
<path d="M39.9 10.6501H42C42.2281 10.6501 42.4469 10.5594 42.6082 10.3982C42.7694 10.2369 42.86 10.0181 42.86 9.79005C42.86 9.56197 42.7694 9.34322 42.6082 9.18194C42.4469 9.02066 42.2281 8.93005 42 8.93005H39.9C39.672 8.93005 39.4532 9.02066 39.2919 9.18194C39.1306 9.34322 39.04 9.56197 39.04 9.79005C39.04 10.0181 39.1306 10.2369 39.2919 10.3982C39.4532 10.5594 39.672 10.6501 39.9 10.6501Z" fill="white"/>
<path d="M12.2199 10.6501H26.3899C26.6179 10.6501 26.8367 10.5594 26.998 10.3982C27.1593 10.2369 27.2499 10.0181 27.2499 9.79005C27.2499 9.56197 27.1593 9.34322 26.998 9.18194C26.8367 9.02066 26.6179 8.93005 26.3899 8.93005H12.2199C11.9918 8.93005 11.773 9.02066 11.6118 9.18194C11.4505 9.34322 11.3599 9.56197 11.3599 9.79005C11.3599 10.0181 11.4505 10.2369 11.6118 10.3982C11.773 10.5594 11.9918 10.6501 12.2199 10.6501Z" fill="white"/>
<path d="M12.2199 22.4099H19.5799C19.808 22.4099 20.0267 22.3193 20.188 22.1581C20.3493 21.9968 20.4399 21.778 20.4399 21.5499C20.4399 21.3219 20.3493 21.1031 20.188 20.9418C20.0267 20.7805 19.808 20.6899 19.5799 20.6899H12.2199C11.9918 20.6899 11.773 20.7805 11.6118 20.9418C11.4505 21.1031 11.3599 21.3219 11.3599 21.5499C11.3599 21.778 11.4505 21.9968 11.6118 22.1581C11.773 22.3193 11.9918 22.4099 12.2199 22.4099Z" fill="white"/>
<path d="M20.4399 26C20.4399 25.7719 20.3493 25.5532 20.188 25.3919C20.0267 25.2306 19.808 25.14 19.5799 25.14H12.2199C12.1069 25.14 11.9951 25.1623 11.8908 25.2055C11.7864 25.2487 11.6916 25.312 11.6118 25.3919C11.5319 25.4718 11.4685 25.5666 11.4253 25.6709C11.3821 25.7752 11.3599 25.8871 11.3599 26C11.3599 26.113 11.3821 26.2248 11.4253 26.3291C11.4685 26.4335 11.5319 26.5283 11.6118 26.6081C11.6916 26.688 11.7864 26.7513 11.8908 26.7946C11.9951 26.8378 12.1069 26.86 12.2199 26.86H19.5799C19.6932 26.8614 19.8056 26.84 19.9106 26.7973C20.0155 26.7545 20.1108 26.6912 20.191 26.6111C20.2711 26.531 20.3344 26.4356 20.3771 26.3307C20.4199 26.2258 20.4412 26.1133 20.4399 26Z" fill="white"/>
<path d="M43.9301 17.36C42.8601 17.3545 41.7997 17.5621 40.8107 17.9707C39.8218 18.3793 38.9241 18.9808 38.1701 19.74L33.0901 24.83C31.8854 26.0282 31.0891 27.5757 30.8144 29.2525C30.5397 30.9293 30.8007 32.65 31.5601 34.17L29.7401 36C28.6256 35.4299 27.3919 35.1318 26.1401 35.13C25.071 35.1271 24.0121 35.337 23.0249 35.7473C22.0378 36.1576 21.1421 36.7602 20.3901 37.52L15.3101 42.6C13.7838 44.1236 12.9252 46.1912 12.9233 48.3479C12.9215 50.5046 13.7764 52.5737 15.3001 54.1C16.8237 55.6263 18.8913 56.4848 21.048 56.4867C23.2047 56.4886 25.2737 55.6337 26.8001 54.11L31.9001 49C32.6545 48.245 33.2522 47.3483 33.6589 46.3615C34.0656 45.3747 34.2733 44.3173 34.2701 43.25C34.2659 42.0438 33.989 40.8541 33.4601 39.77L35.3401 37.86C36.4347 38.3906 37.6337 38.6707 38.8501 38.68C39.9182 38.6825 40.9762 38.4735 41.9631 38.065C42.95 37.6565 43.8462 37.0566 44.6001 36.3L49.6801 31.21C50.819 30.0743 51.5951 28.626 51.9098 27.0487C52.2244 25.4714 52.0636 23.8361 51.4477 22.3503C50.8317 20.8645 49.7884 19.5952 48.45 18.7031C47.1116 17.8111 45.5385 17.3367 43.9301 17.34V17.36ZM33.2201 34.93L34.4401 33.68L37.3501 30.68C37.5294 30.5119 37.7644 30.4158 38.0101 30.41C38.1317 30.4087 38.2524 30.4315 38.3652 30.4771C38.478 30.5228 38.5806 30.5903 38.6671 30.6759C38.7536 30.7614 38.8222 30.8633 38.8691 30.9756C38.916 31.0879 38.9401 31.2083 38.9401 31.33C38.937 31.5744 38.8445 31.8091 38.6801 31.99L36.7401 33.99L34.5301 36.24L29.9201 41L29.0901 41.85L27.8701 43.09C27.6946 43.2604 27.4597 43.3558 27.2151 43.3558C26.9705 43.3558 26.7355 43.2604 26.5601 43.09C26.387 42.9162 26.2837 42.6849 26.2701 42.44C26.2734 42.1908 26.3697 41.9519 26.5401 41.77L33.2101 34.96L33.2201 34.93ZM39.8701 29.46C39.3904 28.9956 38.7532 28.7294 38.0857 28.7146C37.4183 28.6998 36.7699 28.9374 36.2701 29.38C36.4039 29.077 36.5939 28.8022 36.8301 28.57L41.9201 23.49C42.4605 22.9787 43.1761 22.6938 43.9201 22.6938C44.664 22.6938 45.3797 22.9787 45.9201 23.49C46.1837 23.7521 46.393 24.0637 46.5357 24.4069C46.6785 24.7502 46.752 25.1182 46.752 25.49C46.752 25.8617 46.6785 26.2298 46.5357 26.573C46.393 26.9163 46.1837 27.2279 45.9201 27.49L40.8301 32.58C40.5587 32.8441 40.2397 33.0545 39.8901 33.2C40.1329 32.9514 40.3243 32.6574 40.4533 32.3347C40.5823 32.012 40.6463 31.6671 40.6416 31.3196C40.637 30.9721 40.5638 30.629 40.4263 30.3099C40.2887 29.9908 40.0895 29.7019 39.8401 29.46H39.8701ZM25.3501 44.28C25.8484 44.7534 26.5128 45.0119 27.2001 45C27.7008 44.9992 28.1906 44.8533 28.6101 44.58C28.4835 44.8255 28.3218 45.0512 28.1301 45.25L23.0501 50.33C22.7877 50.5924 22.4757 50.8 22.1324 50.9408C21.789 51.0815 21.4211 51.1526 21.0501 51.15C20.4907 51.1495 19.944 50.9833 19.479 50.6723C19.014 50.3613 18.6516 49.9195 18.4376 49.4027C18.2236 48.8858 18.1675 48.3172 18.2766 47.7685C18.3856 47.2198 18.6547 46.7158 19.0501 46.32L24.1401 41.23C24.4645 40.921 24.8541 40.6887 25.2801 40.55C24.8111 41.0548 24.5571 41.7223 24.5721 42.4112C24.587 43.1001 24.8696 43.756 25.3601 44.24L25.3501 44.28ZM32.1601 41.12C32.4139 41.8117 32.5426 42.5431 32.5401 43.28C32.5418 44.1233 32.3766 44.9587 32.0539 45.7379C31.7313 46.5171 31.2575 47.2247 30.6601 47.82L25.5801 52.9C24.9856 53.4996 24.2785 53.9759 23.4993 54.3015C22.7202 54.627 21.8845 54.7954 21.0401 54.797C20.1957 54.7986 19.3593 54.6334 18.5789 54.3107C17.7986 53.9881 17.0897 53.5145 16.4929 52.9171C15.8962 52.3197 15.4233 51.6103 15.1016 50.8296C14.7798 50.0489 14.6155 49.2123 14.618 48.3679C14.6205 47.5235 14.7899 46.6879 15.1163 45.9092C15.4427 45.1304 15.9198 44.4238 16.5201 43.83L21.6101 38.74C22.4911 37.8579 23.6102 37.2518 24.8304 36.996C26.0507 36.7403 27.319 36.8459 28.4801 37.3L27.0001 38.8C26.7106 38.7399 26.4157 38.7097 26.1201 38.71C24.9254 38.7032 23.776 39.1666 22.9201 40L17.8401 45.09C17.2067 45.7262 16.7757 46.5357 16.6013 47.4164C16.427 48.297 16.5171 49.2096 16.8602 50.0392C17.2034 50.8688 17.7843 51.5784 18.5299 52.0785C19.2754 52.5787 20.1523 52.8471 21.0501 52.85C21.6465 52.8516 22.2373 52.7348 22.7883 52.5065C23.3393 52.2782 23.8395 51.9429 24.2601 51.52L29.3401 46.44C29.7656 46.0188 30.1031 45.5172 30.3332 44.9644C30.5632 44.4117 30.6811 43.8187 30.6801 43.22C30.6904 43.0168 30.6904 42.8132 30.6801 42.61L31.6801 41.61L32.1601 41.12ZM48.4601 30L43.3801 35.09C42.5131 35.961 41.413 36.5631 40.212 36.8239C39.011 37.0847 37.7602 36.993 36.6101 36.56L38.0901 35.05C38.8098 35.1749 39.549 35.1248 40.2452 34.9037C40.9415 34.6826 41.5742 34.2972 42.0901 33.78L47.1801 28.69C48.023 27.842 48.4973 26.6957 48.5001 25.5C48.5015 24.9003 48.3828 24.3064 48.1509 23.7534C47.919 23.2003 47.5787 22.6994 47.1501 22.28C46.2953 21.4275 45.1373 20.9488 43.9301 20.9488C42.7228 20.9488 41.5649 21.4275 40.7101 22.28L35.6201 27.37C35.1101 27.8905 34.7302 28.5241 34.5112 29.2191C34.2923 29.9142 34.2405 30.6511 34.3601 31.37L33.3601 32.37L32.8701 32.87C32.4273 31.7155 32.3296 30.4572 32.5888 29.2482C32.848 28.0392 33.453 26.9315 34.3301 26.06L39.3901 21C39.9607 20.3226 40.6656 19.7708 41.4601 19.3795C42.2547 18.9881 43.1218 18.7657 44.0066 18.7262C44.8914 18.6868 45.7749 18.8311 46.6011 19.1501C47.4274 19.4691 48.1786 19.9559 48.8073 20.5798C49.436 21.2036 49.9286 21.951 50.254 22.7748C50.5794 23.5986 50.7306 24.4809 50.698 25.366C50.6654 26.2511 50.4497 27.1198 50.0645 27.9174C49.6793 28.715 49.133 29.4241 48.4601 30Z" fill="white"/>
</svg>
